<svg xmlns="http://www.w3.org/2000/svg" class="gsfig" viewBox="0 0 720 250" role="img" aria-label="평균 최근린 거리. 회색 막대는 시 안에 1,408개의 점을 완전 무작위로 뿌린 모의 99번, 파란 막대는 인구에 비례해 뿌린 모의 99번의 값. 실제 출동(210 m)은 두 모의 어느 것보다도 짧음">
<style>
.gsfig{font-family:system-ui,-apple-system,'Apple SD Gothic Neo','Malgun Gothic','Noto Sans KR',sans-serif}
.gsfig .s-fg{stroke:#1c2330}.gsfig .s-mu{stroke:#8a93a3}.gsfig .s-ac{stroke:#2563eb}.gsfig .s-bd{stroke:#c2410c}.gsfig .s-ok{stroke:#15803d}.gsfig .s-bg{stroke:#ffffff}
.gsfig .f-fg{fill:#1c2330}.gsfig .f-mu{fill:#5a6475}.gsfig .f-ac{fill:#2563eb}.gsfig .f-acs{fill:#e6eefe}.gsfig .f-bd{fill:#c2410c}
.gsfig .f-bds{fill:#fdeee6}.gsfig .f-ok{fill:#15803d}.gsfig .f-sf{fill:#f0f2f5}.gsfig .f-bg{fill:#ffffff}
.gsfig .d0{fill:#2166ac}.gsfig .d1{fill:#67a9cf}.gsfig .d2{fill:#d1e5f0}.gsfig .d3{fill:#fddbc7}.gsfig .d4{fill:#ef8a62}.gsfig .d5{fill:#b2182b}
.gsfig .q0{fill:#fff1e0}.gsfig .q1{fill:#fdc98f}.gsfig .q2{fill:#f98f45}.gsfig .q3{fill:#d9530f}.gsfig .q4{fill:#8c2d04}
@media (prefers-color-scheme:dark){
.gsfig .s-fg{stroke:#e6e9ef}.gsfig .s-mu{stroke:#737c8c}.gsfig .s-ac{stroke:#6d9bff}.gsfig .s-bd{stroke:#fb8b5b}.gsfig .s-ok{stroke:#4ade80}.gsfig .s-bg{stroke:#1a1e26}
.gsfig .f-fg{fill:#e6e9ef}.gsfig .f-mu{fill:#a7afbd}.gsfig .f-ac{fill:#6d9bff}.gsfig .f-acs{fill:#1f2b45}.gsfig .f-bd{fill:#fb8b5b}
.gsfig .f-bds{fill:#3a2218}.gsfig .f-ok{fill:#4ade80}.gsfig .f-sf{fill:#222733}.gsfig .f-bg{fill:#1a1e26}}
</style>
<rect x="0" y="0" width="720" height="250" class="f-bg"/>
<rect x="508.8" y="184.9" width="11.8" height="5.1" rx="0" class="s-bg f-mu" stroke-width="0.5"/>
<rect x="520.6" y="184.9" width="11.8" height="5.1" rx="0" class="s-bg f-mu" stroke-width="0.5"/>
<rect x="532.4" y="149.0" width="11.8" height="41.0" rx="0" class="s-bg f-mu" stroke-width="0.5"/>
<rect x="544.2" y="143.8" width="11.8" height="46.2" rx="0" class="s-bg f-mu" stroke-width="0.5"/>
<rect x="556.0" y="123.3" width="11.8" height="66.7" rx="0" class="s-bg f-mu" stroke-width="0.5"/>
<rect x="567.8" y="107.9" width="11.8" height="82.1" rx="0" class="s-bg f-mu" stroke-width="0.5"/>
<rect x="579.6" y="66.9" width="11.8" height="123.1" rx="0" class="s-bg f-mu" stroke-width="0.5"/>
<rect x="591.4" y="123.3" width="11.8" height="66.7" rx="0" class="s-bg f-mu" stroke-width="0.5"/>
<rect x="603.2" y="149.0" width="11.8" height="41.0" rx="0" class="s-bg f-mu" stroke-width="0.5"/>
<rect x="615.0" y="164.4" width="11.8" height="25.6" rx="0" class="s-bg f-mu" stroke-width="0.5"/>
<rect x="650.5" y="184.9" width="11.8" height="5.1" rx="0" class="s-bg f-mu" stroke-width="0.5"/>
<rect x="166.3" y="179.7" width="11.8" height="10.3" rx="0" class="s-bg f-ac" stroke-width="0.5"/>
<rect x="178.1" y="164.4" width="11.8" height="25.6" rx="0" class="s-bg f-ac" stroke-width="0.5"/>
<rect x="189.9" y="149.0" width="11.8" height="41.0" rx="0" class="s-bg f-ac" stroke-width="0.5"/>
<rect x="201.7" y="133.6" width="11.8" height="56.4" rx="0" class="s-bg f-ac" stroke-width="0.5"/>
<rect x="213.5" y="72.1" width="11.8" height="117.9" rx="0" class="s-bg f-ac" stroke-width="0.5"/>
<rect x="225.3" y="123.3" width="11.8" height="66.7" rx="0" class="s-bg f-ac" stroke-width="0.5"/>
<rect x="237.1" y="107.9" width="11.8" height="82.1" rx="0" class="s-bg f-ac" stroke-width="0.5"/>
<rect x="249.0" y="143.8" width="11.8" height="46.2" rx="0" class="s-bg f-ac" stroke-width="0.5"/>
<rect x="260.8" y="164.4" width="11.8" height="25.6" rx="0" class="s-bg f-ac" stroke-width="0.5"/>
<rect x="272.6" y="174.6" width="11.8" height="15.4" rx="0" class="s-bg f-ac" stroke-width="0.5"/>
<rect x="284.4" y="174.6" width="11.8" height="15.4" rx="0" class="s-bg f-ac" stroke-width="0.5"/>
<rect x="296.2" y="184.9" width="11.8" height="5.1" rx="0" class="s-bg f-ac" stroke-width="0.5"/>
<line x1="60.0" y1="190.0" x2="680.0" y2="190.0" class="s-mu" stroke-width="1"/>
<line x1="60.0" y1="190.0" x2="60.0" y2="194.0" class="s-mu" stroke-width="1"/>
<text x="60.0" y="205.0" class="f-mu" font-size="10" text-anchor="middle">200</text>
<line x1="178.1" y1="190.0" x2="178.1" y2="194.0" class="s-mu" stroke-width="1"/>
<text x="178.1" y="205.0" class="f-mu" font-size="10" text-anchor="middle">220</text>
<line x1="296.2" y1="190.0" x2="296.2" y2="194.0" class="s-mu" stroke-width="1"/>
<text x="296.2" y="205.0" class="f-mu" font-size="10" text-anchor="middle">240</text>
<line x1="414.3" y1="190.0" x2="414.3" y2="194.0" class="s-mu" stroke-width="1"/>
<text x="414.3" y="205.0" class="f-mu" font-size="10" text-anchor="middle">260</text>
<line x1="532.4" y1="190.0" x2="532.4" y2="194.0" class="s-mu" stroke-width="1"/>
<text x="532.4" y="205.0" class="f-mu" font-size="10" text-anchor="middle">280</text>
<line x1="650.5" y1="190.0" x2="650.5" y2="194.0" class="s-mu" stroke-width="1"/>
<text x="650.5" y="205.0" class="f-mu" font-size="10" text-anchor="middle">300</text>
<text x="370.0" y="222.0" class="f-mu" font-size="11" text-anchor="middle">평균 최근린 거리 (m)</text>
<line x1="60.0" y1="30.0" x2="60.0" y2="190.0" class="s-mu" stroke-width="1"/>
<line x1="56.0" y1="190.0" x2="60.0" y2="190.0" class="s-mu" stroke-width="1"/>
<text x="53.0" y="194.0" class="f-mu" font-size="10" text-anchor="end">0</text>
<line x1="56.0" y1="138.7" x2="60.0" y2="138.7" class="s-mu" stroke-width="1"/>
<text x="53.0" y="142.7" class="f-mu" font-size="10" text-anchor="end">10</text>
<line x1="56.0" y1="87.4" x2="60.0" y2="87.4" class="s-mu" stroke-width="1"/>
<text x="53.0" y="91.4" class="f-mu" font-size="10" text-anchor="end">20</text>
<line x1="56.0" y1="36.2" x2="60.0" y2="36.2" class="s-mu" stroke-width="1"/>
<text x="53.0" y="40.2" class="f-mu" font-size="10" text-anchor="end">30</text>
<text x="52.0" y="20.0" class="f-mu" font-size="11" text-anchor="start">모의 횟수</text>
<line x1="121.4" y1="30.0" x2="121.4" y2="190.0" class="s-bd" stroke-width="2"/>
<text x="125.4" y="44.0" class="f-bd" font-size="11" text-anchor="start">실제 210 m</text>
<text x="229.6" y="44.0" class="f-ac" font-size="11" text-anchor="middle">인구 비례</text>
<text x="578.6" y="44.0" class="f-mu" font-size="11" text-anchor="middle">CSR</text>
</svg>
