<svg xmlns="http://www.w3.org/2000/svg" class="gsfig" viewBox="0 0 720 280" role="img" aria-label="보통의 L(r) − r(빨간 선)과 모형에서 모의한 99번의 범위(회색 띠). 왼쪽: 인구만 넣은 모형 M1도 거의 모든 거리에서 띠 안에 듦(60개 거리 가운데 2곳에서 살짝 벗어남). 가운데: 인구·지표온도·고령비율을 넣은 M3는 모든 거리에서 띠 안에 듦. 오른쪽: 강도가 일정하다고 보고 적합한 Thomas 군집 과정의 L(r) − r(점선)도 관측과 거의 겹침. 같은 K 함수를 전혀 다른 두 모형이 설명함">
<style>
.gsfig{font-family:system-ui,-apple-system,'Apple SD Gothic Neo','Malgun Gothic','Noto Sans KR',sans-serif}
.gsfig .s-fg{stroke:#1c2330}.gsfig .s-mu{stroke:#8a93a3}.gsfig .s-ac{stroke:#2563eb}.gsfig .s-bd{stroke:#c2410c}.gsfig .s-ok{stroke:#15803d}.gsfig .s-bg{stroke:#ffffff}
.gsfig .f-fg{fill:#1c2330}.gsfig .f-mu{fill:#5a6475}.gsfig .f-ac{fill:#2563eb}.gsfig .f-acs{fill:#e6eefe}.gsfig .f-bd{fill:#c2410c}
.gsfig .f-bds{fill:#fdeee6}.gsfig .f-ok{fill:#15803d}.gsfig .f-sf{fill:#f0f2f5}.gsfig .f-bg{fill:#ffffff}
.gsfig .d0{fill:#2166ac}.gsfig .d1{fill:#67a9cf}.gsfig .d2{fill:#d1e5f0}.gsfig .d3{fill:#fddbc7}.gsfig .d4{fill:#ef8a62}.gsfig .d5{fill:#b2182b}
.gsfig .q0{fill:#fff1e0}.gsfig .q1{fill:#fdc98f}.gsfig .q2{fill:#f98f45}.gsfig .q3{fill:#d9530f}.gsfig .q4{fill:#8c2d04}
@media (prefers-color-scheme:dark){
.gsfig .s-fg{stroke:#e6e9ef}.gsfig .s-mu{stroke:#737c8c}.gsfig .s-ac{stroke:#6d9bff}.gsfig .s-bd{stroke:#fb8b5b}.gsfig .s-ok{stroke:#4ade80}.gsfig .s-bg{stroke:#1a1e26}
.gsfig .f-fg{fill:#e6e9ef}.gsfig .f-mu{fill:#a7afbd}.gsfig .f-ac{fill:#6d9bff}.gsfig .f-acs{fill:#1f2b45}.gsfig .f-bd{fill:#fb8b5b}
.gsfig .f-bds{fill:#3a2218}.gsfig .f-ok{fill:#4ade80}.gsfig .f-sf{fill:#222733}.gsfig .f-bg{fill:#1a1e26}}
</style>
<rect x="0" y="0" width="720" height="280" class="f-bg"/>
<text x="152.0" y="26.0" class="f-fg" font-size="11" text-anchor="middle" font-weight="600">M1: 인구</text>
<polygon points="60.0,214.3 63.1,209.7 66.2,206.0 69.2,201.6 72.3,198.5 75.4,195.3 78.5,191.4 81.6,187.7 84.7,184.4 87.8,180.7 90.8,177.2 93.9,174.0 97.0,170.7 100.1,168.2 103.2,165.3 106.2,162.2 109.3,159.2 112.4,155.8 115.5,152.9 118.6,150.0 121.7,147.0 124.8,144.1 127.8,141.1 130.9,138.1 134.0,135.6 137.1,133.2 140.2,130.3 143.2,127.6 146.3,124.9 149.4,122.2 152.5,119.3 155.6,116.9 158.7,114.1 161.8,111.1 164.8,108.7 167.9,106.1 171.0,103.2 174.1,100.4 177.2,97.5 180.2,94.9 183.3,91.9 186.4,89.4 189.5,86.3 192.6,83.0 195.7,80.3 198.8,76.8 201.8,74.1 204.9,71.1 208.0,68.5 211.1,66.0 214.2,63.5 217.2,60.6 220.3,58.2 223.4,55.3 226.5,52.7 229.6,49.8 232.7,47.3 235.8,44.8 238.8,42.4 241.9,39.4 245.0,37.3 245.0,71.6 241.9,73.5 238.8,75.2 235.8,77.5 232.7,79.5 229.6,81.6 226.5,84.5 223.4,86.6 220.3,88.8 217.2,91.6 214.2,93.9 211.1,95.8 208.0,98.1 204.9,100.2 201.8,102.4 198.8,105.1 195.7,107.5 192.6,110.2 189.5,112.4 186.4,114.7 183.3,116.4 180.2,118.7 177.2,121.2 174.1,123.3 171.0,125.5 167.9,127.0 164.8,129.6 161.8,132.1 158.7,134.5 155.6,136.8 152.5,138.7 149.4,140.6 146.3,143.4 143.2,145.3 140.2,147.7 137.1,149.7 134.0,152.2 130.9,154.2 127.8,156.4 124.8,158.6 121.7,160.8 118.6,162.6 115.5,164.5 112.4,166.8 109.3,169.1 106.2,171.4 103.2,174.0 100.1,176.7 97.0,179.0 93.9,181.8 90.8,184.6 87.8,187.8 84.7,190.6 81.6,193.2 78.5,195.8 75.4,198.9 72.3,201.9 69.2,206.1 66.2,208.7 63.1,212.1 60.0,214.3" class="s-bg f-sf" stroke-width="0"/>
<path d="M60.0,214.3 L63.1,209.8 L66.2,205.9 L69.2,202.1 L72.3,198.5 L75.4,195.0 L78.5,191.5 L81.6,188.5 L84.7,185.6 L87.8,182.5 L90.8,179.2 L93.9,176.2 L97.0,173.3 L100.1,170.8 L103.2,167.9 L106.2,165.3 L109.3,163.2 L112.4,161.4 L115.5,158.6 L118.6,156.1 L121.7,153.8 L124.8,151.9 L127.8,149.5 L130.9,146.8 L134.0,144.7 L137.1,142.3 L140.2,140.3 L143.2,137.6 L146.3,135.5 L149.4,133.5 L152.5,131.7 L155.6,129.9 L158.7,128.1 L161.8,125.4 L164.8,123.1 L167.9,120.1 L171.0,118.0 L174.1,115.7 L177.2,114.2 L180.2,111.5 L183.3,109.6 L186.4,107.8 L189.5,105.4 L192.6,103.3 L195.7,101.4 L198.8,99.0 L201.8,96.1 L204.9,94.2 L208.0,91.7 L211.1,89.7 L214.2,87.3 L217.2,85.6 L220.3,83.6 L223.4,81.2 L226.5,78.9 L229.6,76.2 L232.7,73.6 L235.8,71.3 L238.8,69.5 L241.9,67.3 L245.0,64.7" class="s-bd" stroke-width="1.8" fill="none"/>
<line x1="60.0" y1="222.0" x2="245.0" y2="222.0" class="s-mu" stroke-width="1"/>
<line x1="60.0" y1="222.0" x2="60.0" y2="226.0" class="s-mu" stroke-width="1"/>
<text x="60.0" y="237.0" class="f-mu" font-size="10" text-anchor="middle">0</text>
<line x1="121.7" y1="222.0" x2="121.7" y2="226.0" class="s-mu" stroke-width="1"/>
<text x="121.7" y="237.0" class="f-mu" font-size="10" text-anchor="middle">1,000</text>
<line x1="183.3" y1="222.0" x2="183.3" y2="226.0" class="s-mu" stroke-width="1"/>
<text x="183.3" y="237.0" class="f-mu" font-size="10" text-anchor="middle">2,000</text>
<line x1="245.0" y1="222.0" x2="245.0" y2="226.0" class="s-mu" stroke-width="1"/>
<text x="245.0" y="237.0" class="f-mu" font-size="10" text-anchor="middle">3,000</text>
<text x="152.5" y="254.0" class="f-mu" font-size="11" text-anchor="middle">거리 r (m)</text>
<line x1="60.0" y1="52.0" x2="60.0" y2="222.0" class="s-mu" stroke-width="1"/>
<line x1="56.0" y1="214.3" x2="60.0" y2="214.3" class="s-mu" stroke-width="1"/>
<text x="53.0" y="218.3" class="f-mu" font-size="10" text-anchor="end">0</text>
<line x1="56.0" y1="137.0" x2="60.0" y2="137.0" class="s-mu" stroke-width="1"/>
<text x="53.0" y="141.0" class="f-mu" font-size="10" text-anchor="end">1,000</text>
<line x1="56.0" y1="59.7" x2="60.0" y2="59.7" class="s-mu" stroke-width="1"/>
<text x="53.0" y="63.7" class="f-mu" font-size="10" text-anchor="end">2,000</text>
<text x="52.0" y="42.0" class="f-mu" font-size="11" text-anchor="start">L(r) − r (m)</text>
<text x="377.0" y="26.0" class="f-fg" font-size="11" text-anchor="middle" font-weight="600">M3: 인구 + 지표온도 + 고령비율</text>
<polygon points="285.0,214.3 288.1,209.4 291.2,205.6 294.2,201.9 297.3,197.5 300.4,193.4 303.5,189.8 306.6,186.5 309.7,182.8 312.8,179.6 315.8,176.1 318.9,172.8 322.0,169.6 325.1,166.4 328.2,163.8 331.2,160.9 334.3,158.0 337.4,154.9 340.5,152.2 343.6,149.2 346.7,146.3 349.8,143.4 352.8,140.0 355.9,137.1 359.0,134.1 362.1,131.0 365.2,128.2 368.2,124.9 371.3,122.0 374.4,119.1 377.5,116.2 380.6,113.2 383.7,110.3 386.8,107.5 389.8,104.2 392.9,101.2 396.0,98.2 399.1,95.3 402.2,92.6 405.2,89.7 408.3,87.3 411.4,84.3 414.5,81.6 417.6,78.9 420.7,76.4 423.8,73.6 426.8,70.9 429.9,67.2 433.0,64.4 436.1,61.6 439.2,58.7 442.2,55.3 445.3,52.5 448.4,49.5 451.5,47.0 454.6,44.4 457.7,41.6 460.8,38.8 463.8,35.8 466.9,33.1 470.0,30.6 470.0,73.2 466.9,75.4 463.8,77.4 460.8,79.1 457.7,81.6 454.6,83.7 451.5,85.7 448.4,88.2 445.3,90.7 442.2,93.0 439.2,95.3 436.1,97.3 433.0,99.2 429.9,101.0 426.8,103.3 423.8,105.3 420.7,107.3 417.6,109.7 414.5,111.7 411.4,113.6 408.3,115.3 405.2,117.2 402.2,119.5 399.1,121.6 396.0,123.3 392.9,125.5 389.8,127.7 386.8,129.8 383.7,131.8 380.6,134.0 377.5,136.2 374.4,138.0 371.3,140.3 368.2,142.9 365.2,145.5 362.1,147.5 359.0,149.2 355.9,151.2 352.8,153.3 349.8,155.8 346.7,158.6 343.6,160.5 340.5,162.8 337.4,165.2 334.3,167.5 331.2,170.0 328.2,172.4 325.1,175.3 322.0,178.1 318.9,180.8 315.8,183.7 312.8,186.6 309.7,189.1 306.6,192.1 303.5,195.6 300.4,199.0 297.3,201.5 294.2,204.9 291.2,208.3 288.1,211.7 285.0,214.3" class="s-bg f-sf" stroke-width="0"/>
<path d="M285.0,214.3 L288.1,209.8 L291.2,205.9 L294.2,202.1 L297.3,198.5 L300.4,195.0 L303.5,191.5 L306.6,188.5 L309.7,185.6 L312.8,182.5 L315.8,179.2 L318.9,176.2 L322.0,173.3 L325.1,170.8 L328.2,167.9 L331.2,165.3 L334.3,163.2 L337.4,161.4 L340.5,158.6 L343.6,156.1 L346.7,153.8 L349.8,151.9 L352.8,149.5 L355.9,146.8 L359.0,144.7 L362.1,142.3 L365.2,140.3 L368.2,137.6 L371.3,135.5 L374.4,133.5 L377.5,131.7 L380.6,129.9 L383.7,128.1 L386.8,125.4 L389.8,123.1 L392.9,120.1 L396.0,118.0 L399.1,115.7 L402.2,114.2 L405.2,111.5 L408.3,109.6 L411.4,107.8 L414.5,105.4 L417.6,103.3 L420.7,101.4 L423.8,99.0 L426.8,96.1 L429.9,94.2 L433.0,91.7 L436.1,89.7 L439.2,87.3 L442.2,85.6 L445.3,83.6 L448.4,81.2 L451.5,78.9 L454.6,76.2 L457.7,73.6 L460.8,71.3 L463.8,69.5 L466.9,67.3 L470.0,64.7" class="s-bd" stroke-width="1.8" fill="none"/>
<line x1="285.0" y1="222.0" x2="470.0" y2="222.0" class="s-mu" stroke-width="1"/>
<line x1="285.0" y1="222.0" x2="285.0" y2="226.0" class="s-mu" stroke-width="1"/>
<text x="285.0" y="237.0" class="f-mu" font-size="10" text-anchor="middle">0</text>
<line x1="346.7" y1="222.0" x2="346.7" y2="226.0" class="s-mu" stroke-width="1"/>
<text x="346.7" y="237.0" class="f-mu" font-size="10" text-anchor="middle">1,000</text>
<line x1="408.3" y1="222.0" x2="408.3" y2="226.0" class="s-mu" stroke-width="1"/>
<text x="408.3" y="237.0" class="f-mu" font-size="10" text-anchor="middle">2,000</text>
<line x1="470.0" y1="222.0" x2="470.0" y2="226.0" class="s-mu" stroke-width="1"/>
<text x="470.0" y="237.0" class="f-mu" font-size="10" text-anchor="middle">3,000</text>
<text x="377.5" y="254.0" class="f-mu" font-size="11" text-anchor="middle">거리 r (m)</text>
<line x1="285.0" y1="52.0" x2="285.0" y2="222.0" class="s-mu" stroke-width="1"/>
<line x1="281.0" y1="214.3" x2="285.0" y2="214.3" class="s-mu" stroke-width="1"/>
<text x="278.0" y="218.3" class="f-mu" font-size="10" text-anchor="end">0</text>
<line x1="281.0" y1="137.0" x2="285.0" y2="137.0" class="s-mu" stroke-width="1"/>
<text x="278.0" y="141.0" class="f-mu" font-size="10" text-anchor="end">1,000</text>
<line x1="281.0" y1="59.7" x2="285.0" y2="59.7" class="s-mu" stroke-width="1"/>
<text x="278.0" y="63.7" class="f-mu" font-size="10" text-anchor="end">2,000</text>
<text x="602.0" y="26.0" class="f-fg" font-size="11" text-anchor="middle" font-weight="600">균질 Thomas 군집 과정</text>
<path d="M510.0,214.3 L513.1,211.2 L516.2,208.0 L519.2,204.9 L522.3,201.8 L525.4,198.7 L528.5,195.6 L531.6,192.6 L534.7,189.5 L537.8,186.4 L540.8,183.4 L543.9,180.3 L547.0,177.3 L550.1,174.3 L553.2,171.4 L556.2,168.4 L559.3,165.5 L562.4,162.6 L565.5,159.7 L568.6,156.8 L571.7,154.0 L574.8,151.2 L577.8,148.4 L580.9,145.7 L584.0,143.0 L587.1,140.3 L590.2,137.7 L593.2,135.1 L596.3,132.5 L599.4,130.0 L602.5,127.5 L605.6,125.1 L608.7,122.7 L611.8,120.3 L614.8,118.0 L617.9,115.7 L621.0,113.5 L624.1,111.3 L627.2,109.1 L630.2,107.0 L633.3,105.0 L636.4,103.0 L639.5,101.0 L642.6,99.1 L645.7,97.3 L648.8,95.4 L651.8,93.7 L654.9,92.0 L658.0,90.3 L661.1,88.7 L664.2,87.1 L667.2,85.6 L670.3,84.1 L673.4,82.7 L676.5,81.3 L679.6,80.0 L682.7,78.7 L685.8,77.5 L688.8,76.3 L691.9,75.2 L695.0,74.1" class="s-ac" stroke-width="1.8" fill="none" stroke-dasharray="5 3"/>
<path d="M510.0,214.3 L513.1,209.8 L516.2,205.9 L519.2,202.1 L522.3,198.5 L525.4,195.0 L528.5,191.5 L531.6,188.5 L534.7,185.6 L537.8,182.5 L540.8,179.2 L543.9,176.2 L547.0,173.3 L550.1,170.8 L553.2,167.9 L556.2,165.3 L559.3,163.2 L562.4,161.4 L565.5,158.6 L568.6,156.1 L571.7,153.8 L574.8,151.9 L577.8,149.5 L580.9,146.8 L584.0,144.7 L587.1,142.3 L590.2,140.3 L593.2,137.6 L596.3,135.5 L599.4,133.5 L602.5,131.7 L605.6,129.9 L608.7,128.1 L611.8,125.4 L614.8,123.1 L617.9,120.1 L621.0,118.0 L624.1,115.7 L627.2,114.2 L630.2,111.5 L633.3,109.6 L636.4,107.8 L639.5,105.4 L642.6,103.3 L645.7,101.4 L648.8,99.0 L651.8,96.1 L654.9,94.2 L658.0,91.7 L661.1,89.7 L664.2,87.3 L667.2,85.6 L670.3,83.6 L673.4,81.2 L676.5,78.9 L679.6,76.2 L682.7,73.6 L685.8,71.3 L688.8,69.5 L691.9,67.3 L695.0,64.7" class="s-bd" stroke-width="1.8" fill="none"/>
<line x1="510.0" y1="222.0" x2="695.0" y2="222.0" class="s-mu" stroke-width="1"/>
<line x1="510.0" y1="222.0" x2="510.0" y2="226.0" class="s-mu" stroke-width="1"/>
<text x="510.0" y="237.0" class="f-mu" font-size="10" text-anchor="middle">0</text>
<line x1="571.7" y1="222.0" x2="571.7" y2="226.0" class="s-mu" stroke-width="1"/>
<text x="571.7" y="237.0" class="f-mu" font-size="10" text-anchor="middle">1,000</text>
<line x1="633.3" y1="222.0" x2="633.3" y2="226.0" class="s-mu" stroke-width="1"/>
<text x="633.3" y="237.0" class="f-mu" font-size="10" text-anchor="middle">2,000</text>
<line x1="695.0" y1="222.0" x2="695.0" y2="226.0" class="s-mu" stroke-width="1"/>
<text x="695.0" y="237.0" class="f-mu" font-size="10" text-anchor="middle">3,000</text>
<text x="602.5" y="254.0" class="f-mu" font-size="11" text-anchor="middle">거리 r (m)</text>
<line x1="510.0" y1="52.0" x2="510.0" y2="222.0" class="s-mu" stroke-width="1"/>
<line x1="506.0" y1="214.3" x2="510.0" y2="214.3" class="s-mu" stroke-width="1"/>
<text x="503.0" y="218.3" class="f-mu" font-size="10" text-anchor="end">0</text>
<line x1="506.0" y1="137.0" x2="510.0" y2="137.0" class="s-mu" stroke-width="1"/>
<text x="503.0" y="141.0" class="f-mu" font-size="10" text-anchor="end">1,000</text>
<line x1="506.0" y1="59.7" x2="510.0" y2="59.7" class="s-mu" stroke-width="1"/>
<text x="503.0" y="63.7" class="f-mu" font-size="10" text-anchor="end">2,000</text>
</svg>
