<svg xmlns="http://www.w3.org/2000/svg" class="gsfig" viewBox="0 0 720 378" role="img" aria-label="공간 회귀 모형의 계보(Elhorst 2010). 맨 위의 일반 둥지 모형(GNS)은 세 가지 공간 항(ρWy, WXθ, λWu)을 모두 가지고, 화살표를 따라 항을 하나씩 0으로 두면 아래 모형이 됨. 공간오차 모형(SEM)은 공간 더빈 모형(SDM)에서 θ = −ρβ인 특수한 경우이기도 함(공통인수 제약). GeoStat에는 OLS, SAR, SEM이 있고 나머지는 코드로 추정함">
<style>
.gsfig{font-family:system-ui,-apple-system,'Apple SD Gothic Neo','Malgun Gothic','Noto Sans KR',sans-serif}
.gsfig .s-fg{stroke:#1c2330}.gsfig .s-mu{stroke:#8a93a3}.gsfig .s-ac{stroke:#2563eb}.gsfig .s-bd{stroke:#c2410c}.gsfig .s-ok{stroke:#15803d}.gsfig .s-bg{stroke:#ffffff}
.gsfig .f-fg{fill:#1c2330}.gsfig .f-mu{fill:#5a6475}.gsfig .f-ac{fill:#2563eb}.gsfig .f-acs{fill:#e6eefe}.gsfig .f-bd{fill:#c2410c}
.gsfig .f-bds{fill:#fdeee6}.gsfig .f-ok{fill:#15803d}.gsfig .f-sf{fill:#f0f2f5}.gsfig .f-bg{fill:#ffffff}
.gsfig .d0{fill:#2166ac}.gsfig .d1{fill:#67a9cf}.gsfig .d2{fill:#d1e5f0}.gsfig .d3{fill:#fddbc7}.gsfig .d4{fill:#ef8a62}.gsfig .d5{fill:#b2182b}
.gsfig .q0{fill:#fff1e0}.gsfig .q1{fill:#fdc98f}.gsfig .q2{fill:#f98f45}.gsfig .q3{fill:#d9530f}.gsfig .q4{fill:#8c2d04}
@media (prefers-color-scheme:dark){
.gsfig .s-fg{stroke:#e6e9ef}.gsfig .s-mu{stroke:#737c8c}.gsfig .s-ac{stroke:#6d9bff}.gsfig .s-bd{stroke:#fb8b5b}.gsfig .s-ok{stroke:#4ade80}.gsfig .s-bg{stroke:#1a1e26}
.gsfig .f-fg{fill:#e6e9ef}.gsfig .f-mu{fill:#a7afbd}.gsfig .f-ac{fill:#6d9bff}.gsfig .f-acs{fill:#1f2b45}.gsfig .f-bd{fill:#fb8b5b}
.gsfig .f-bds{fill:#3a2218}.gsfig .f-ok{fill:#4ade80}.gsfig .f-sf{fill:#222733}.gsfig .f-bg{fill:#1a1e26}}
</style>
<rect x="0" y="0" width="720" height="378" class="f-bg"/>
<rect x="210.0" y="14.0" width="300.0" height="44.0" rx="6" class="s-fg f-sf" stroke-width="1.2"/>
<text x="360.0" y="32.0" class="f-fg" font-size="11" text-anchor="middle" font-weight="600">일반 둥지 모형 GNS</text>
<text x="360.0" y="49.0" class="f-mu" font-size="10" text-anchor="middle">y = ρWy + Xβ + WXθ + u,  u = λWu + ε</text>
<rect x="30.0" y="108.0" width="200.0" height="44.0" rx="6" class="s-fg f-sf" stroke-width="1.2"/>
<text x="130.0" y="126.0" class="f-fg" font-size="11" text-anchor="middle" font-weight="600">SAC (SARAR)</text>
<text x="130.0" y="143.0" class="f-mu" font-size="10" text-anchor="middle">y = ρWy + Xβ + u, u = λWu + ε</text>
<rect x="260.0" y="108.0" width="200.0" height="44.0" rx="6" class="s-fg f-sf" stroke-width="1.2"/>
<text x="360.0" y="126.0" class="f-fg" font-size="11" text-anchor="middle" font-weight="600">공간 더빈 모형 SDM</text>
<text x="360.0" y="143.0" class="f-mu" font-size="10" text-anchor="middle">y = ρWy + Xβ + WXθ + ε</text>
<rect x="490.0" y="108.0" width="200.0" height="44.0" rx="6" class="s-fg f-sf" stroke-width="1.2"/>
<text x="590.0" y="126.0" class="f-fg" font-size="11" text-anchor="middle" font-weight="600">공간 더빈 오차 모형 SDEM</text>
<text x="590.0" y="143.0" class="f-mu" font-size="10" text-anchor="middle">y = Xβ + WXθ + u, u = λWu + ε</text>
<rect x="40.0" y="218.0" width="180.0" height="44.0" rx="6" class="s-bd f-bds" stroke-width="1.2"/>
<text x="130.0" y="236.0" class="f-fg" font-size="11" text-anchor="middle" font-weight="600">공간시차 SAR ●</text>
<text x="130.0" y="253.0" class="f-mu" font-size="10" text-anchor="middle">y = ρWy + Xβ + ε</text>
<rect x="270.0" y="218.0" width="180.0" height="44.0" rx="6" class="s-ac f-acs" stroke-width="1.2"/>
<text x="360.0" y="236.0" class="f-fg" font-size="11" text-anchor="middle" font-weight="600">공간오차 SEM ●</text>
<text x="360.0" y="253.0" class="f-mu" font-size="10" text-anchor="middle">y = Xβ + u, u = λWu + ε</text>
<rect x="500.0" y="218.0" width="180.0" height="44.0" rx="6" class="s-fg f-sf" stroke-width="1.2"/>
<text x="590.0" y="236.0" class="f-fg" font-size="11" text-anchor="middle" font-weight="600">공간시차 X SLX</text>
<text x="590.0" y="253.0" class="f-mu" font-size="10" text-anchor="middle">y = Xβ + WXθ + ε</text>
<rect x="280.0" y="308.0" width="160.0" height="44.0" rx="6" class="s-mu f-bg" stroke-width="1.2"/>
<text x="360.0" y="326.0" class="f-fg" font-size="11" text-anchor="middle" font-weight="600">OLS ●</text>
<text x="360.0" y="343.0" class="f-mu" font-size="10" text-anchor="middle">y = Xβ + ε</text>
<line x1="300.0" y1="58.0" x2="160.0" y2="107.0" class="s-mu" stroke-width="1.2"/>
<polygon points="160.0,107.0 165.0,102.1 167.0,107.7" class="s-mu f-mu" stroke-width="0.5"/>
<rect x="210.0" y="72.5" width="40.0" height="14.0" rx="0" class="s-bg f-bg" stroke-width="0"/>
<text x="230.0" y="83.5" class="f-ac" font-size="10" text-anchor="middle">θ = 0</text>
<line x1="360.0" y1="58.0" x2="360.0" y2="107.0" class="s-mu" stroke-width="1.2"/>
<polygon points="360.0,107.0 357.0,100.7 363.0,100.7" class="s-mu f-mu" stroke-width="0.5"/>
<rect x="340.0" y="72.5" width="40.0" height="14.0" rx="0" class="s-bg f-bg" stroke-width="0"/>
<text x="360.0" y="83.5" class="f-ac" font-size="10" text-anchor="middle">λ = 0</text>
<line x1="420.0" y1="58.0" x2="560.0" y2="107.0" class="s-mu" stroke-width="1.2"/>
<polygon points="560.0,107.0 553.0,107.7 555.0,102.1" class="s-mu f-mu" stroke-width="0.5"/>
<rect x="470.0" y="72.5" width="40.0" height="14.0" rx="0" class="s-bg f-bg" stroke-width="0"/>
<text x="490.0" y="83.5" class="f-ac" font-size="10" text-anchor="middle">ρ = 0</text>
<line x1="115.0" y1="152.0" x2="115.0" y2="217.0" class="s-mu" stroke-width="1.2"/>
<polygon points="115.0,217.0 112.0,210.7 118.0,210.7" class="s-mu f-mu" stroke-width="0.5"/>
<rect x="95.0" y="171.2" width="40.0" height="14.0" rx="0" class="s-bg f-bg" stroke-width="0"/>
<text x="115.0" y="182.2" class="f-ac" font-size="10" text-anchor="middle">λ = 0</text>
<line x1="170.0" y1="152.0" x2="330.0" y2="217.0" class="s-mu" stroke-width="1.2"/>
<polygon points="330.0,217.0 323.0,217.4 325.3,211.8" class="s-mu f-mu" stroke-width="0.5"/>
<rect x="190.0" y="158.2" width="40.0" height="14.0" rx="0" class="s-bg f-bg" stroke-width="0"/>
<text x="210.0" y="169.2" class="f-ac" font-size="10" text-anchor="middle">ρ = 0</text>
<line x1="320.0" y1="152.0" x2="175.0" y2="217.0" class="s-mu" stroke-width="1.2"/>
<polygon points="175.0,217.0 179.6,211.7 182.0,217.1" class="s-mu f-mu" stroke-width="0.5"/>
<rect x="263.8" y="158.2" width="40.0" height="14.0" rx="0" class="s-bg f-bg" stroke-width="0"/>
<text x="283.8" y="169.2" class="f-ac" font-size="10" text-anchor="middle">θ = 0</text>
<line x1="360.0" y1="152.0" x2="360.0" y2="217.0" class="s-mu" stroke-width="1.2" stroke-dasharray="4 3"/>
<polygon points="360.0,217.0 357.0,210.7 363.0,210.7" class="s-mu f-mu" stroke-width="0.5"/>
<rect x="333.2" y="171.2" width="53.6" height="14.0" rx="0" class="s-bg f-bg" stroke-width="0"/>
<text x="360.0" y="182.2" class="f-ac" font-size="10" text-anchor="middle">θ = −ρβ</text>
<line x1="400.0" y1="152.0" x2="545.0" y2="217.0" class="s-mu" stroke-width="1.2"/>
<polygon points="545.0,217.0 538.0,217.1 540.4,211.7" class="s-mu f-mu" stroke-width="0.5"/>
<rect x="416.2" y="158.2" width="40.0" height="14.0" rx="0" class="s-bg f-bg" stroke-width="0"/>
<text x="436.2" y="169.2" class="f-ac" font-size="10" text-anchor="middle">ρ = 0</text>
<line x1="550.0" y1="152.0" x2="395.0" y2="217.0" class="s-mu" stroke-width="1.2"/>
<polygon points="395.0,217.0 399.7,211.8 402.0,217.3" class="s-mu f-mu" stroke-width="0.5"/>
<rect x="491.2" y="158.2" width="40.0" height="14.0" rx="0" class="s-bg f-bg" stroke-width="0"/>
<text x="511.2" y="169.2" class="f-ac" font-size="10" text-anchor="middle">θ = 0</text>
<line x1="605.0" y1="152.0" x2="605.0" y2="217.0" class="s-mu" stroke-width="1.2"/>
<polygon points="605.0,217.0 602.0,210.7 608.0,210.7" class="s-mu f-mu" stroke-width="0.5"/>
<rect x="585.0" y="171.2" width="40.0" height="14.0" rx="0" class="s-bg f-bg" stroke-width="0"/>
<text x="605.0" y="182.2" class="f-ac" font-size="10" text-anchor="middle">λ = 0</text>
<line x1="150.0" y1="262.0" x2="300.0" y2="314.0" class="s-mu" stroke-width="1.2"/>
<polygon points="300.0,314.0 293.0,314.8 295.0,309.1" class="s-mu f-mu" stroke-width="0.5"/>
<rect x="205.0" y="278.0" width="40.0" height="14.0" rx="0" class="s-bg f-bg" stroke-width="0"/>
<text x="225.0" y="289.0" class="f-ac" font-size="10" text-anchor="middle">ρ = 0</text>
<line x1="360.0" y1="262.0" x2="360.0" y2="307.0" class="s-mu" stroke-width="1.2"/>
<polygon points="360.0,307.0 357.0,300.7 363.0,300.7" class="s-mu f-mu" stroke-width="0.5"/>
<rect x="340.0" y="274.5" width="40.0" height="14.0" rx="0" class="s-bg f-bg" stroke-width="0"/>
<text x="360.0" y="285.5" class="f-ac" font-size="10" text-anchor="middle">λ = 0</text>
<line x1="570.0" y1="262.0" x2="420.0" y2="314.0" class="s-mu" stroke-width="1.2"/>
<polygon points="420.0,314.0 425.0,309.1 427.0,314.8" class="s-mu f-mu" stroke-width="0.5"/>
<rect x="475.0" y="278.0" width="40.0" height="14.0" rx="0" class="s-bg f-bg" stroke-width="0"/>
<text x="495.0" y="289.0" class="f-ac" font-size="10" text-anchor="middle">θ = 0</text>
<text x="705.0" y="368.0" class="f-mu" font-size="10" text-anchor="end">● GeoStat에서 추정할 수 있음</text>
</svg>
