<svg xmlns="http://www.w3.org/2000/svg" class="gsfig" viewBox="0 0 720 300" role="img" aria-label="Y_변이 GWR(이웃 76)의 지역 계수 150쌍. 왼쪽: 지역 상수와 지역 고령비율 계수가 서로 반대로 움직임(상관 −0.96). 참값(주황 십자: 상수 5, 고령비율 0.3)은 어디서나 같은데, 한쪽이 커지면 다른 쪽이 작아지는 방향으로 함께 흔들림. 오른쪽: 고령비율에서 평균(22.6)을 빼고 적합하면 상수는 평균 고령비율에서의 값이 되어 맞바꿈이 줄어듦(상관 −0.52). 참 상수는 5 + 0.3 × 22.6 = 11.79">
<style>
.gsfig{font-family:system-ui,-apple-system,'Apple SD Gothic Neo','Malgun Gothic','Noto Sans KR',sans-serif}
.gsfig .s-fg{stroke:#1c2330}.gsfig .s-mu{stroke:#8a93a3}.gsfig .s-ac{stroke:#2563eb}.gsfig .s-bd{stroke:#c2410c}.gsfig .s-ok{stroke:#15803d}.gsfig .s-bg{stroke:#ffffff}
.gsfig .f-fg{fill:#1c2330}.gsfig .f-mu{fill:#5a6475}.gsfig .f-ac{fill:#2563eb}.gsfig .f-acs{fill:#e6eefe}.gsfig .f-bd{fill:#c2410c}
.gsfig .f-bds{fill:#fdeee6}.gsfig .f-ok{fill:#15803d}.gsfig .f-sf{fill:#f0f2f5}.gsfig .f-bg{fill:#ffffff}
.gsfig .d0{fill:#2166ac}.gsfig .d1{fill:#67a9cf}.gsfig .d2{fill:#d1e5f0}.gsfig .d3{fill:#fddbc7}.gsfig .d4{fill:#ef8a62}.gsfig .d5{fill:#b2182b}
.gsfig .q0{fill:#fff1e0}.gsfig .q1{fill:#fdc98f}.gsfig .q2{fill:#f98f45}.gsfig .q3{fill:#d9530f}.gsfig .q4{fill:#8c2d04}
@media (prefers-color-scheme:dark){
.gsfig .s-fg{stroke:#e6e9ef}.gsfig .s-mu{stroke:#737c8c}.gsfig .s-ac{stroke:#6d9bff}.gsfig .s-bd{stroke:#fb8b5b}.gsfig .s-ok{stroke:#4ade80}.gsfig .s-bg{stroke:#1a1e26}
.gsfig .f-fg{fill:#e6e9ef}.gsfig .f-mu{fill:#a7afbd}.gsfig .f-ac{fill:#6d9bff}.gsfig .f-acs{fill:#1f2b45}.gsfig .f-bd{fill:#fb8b5b}
.gsfig .f-bds{fill:#3a2218}.gsfig .f-ok{fill:#4ade80}.gsfig .f-sf{fill:#222733}.gsfig .f-bg{fill:#1a1e26}}
</style>
<rect x="0" y="0" width="720" height="300" class="f-bg"/>
<circle cx="175.2" cy="157.5" r="2.60" class="f-ac s-bg" stroke-width="0.4"/>
<circle cx="170.3" cy="156.3" r="2.60" class="f-ac s-bg" stroke-width="0.4"/>
<circle cx="192.2" cy="166.6" r="2.60" class="f-ac s-bg" stroke-width="0.4"/>
<circle cx="204.6" cy="174.1" r="2.60" class="f-ac s-bg" stroke-width="0.4"/>
<circle cx="211.9" cy="176.6" r="2.60" class="f-ac s-bg" stroke-width="0.4"/>
<circle cx="218.5" cy="181.6" r="2.60" class="f-ac s-bg" stroke-width="0.4"/>
<circle cx="228.5" cy="185.2" r="2.60" class="f-ac s-bg" stroke-width="0.4"/>
<circle cx="238.4" cy="191.2" r="2.60" class="f-ac s-bg" stroke-width="0.4"/>
<circle cx="237.6" cy="188.9" r="2.60" class="f-ac s-bg" stroke-width="0.4"/>
<circle cx="150.8" cy="146.9" r="2.60" class="f-ac s-bg" stroke-width="0.4"/>
<circle cx="162.3" cy="154.1" r="2.60" class="f-ac s-bg" stroke-width="0.4"/>
<circle cx="185.8" cy="165.1" r="2.60" class="f-ac s-bg" stroke-width="0.4"/>
<circle cx="177.6" cy="164.0" r="2.60" class="f-ac s-bg" stroke-width="0.4"/>
<circle cx="198.6" cy="172.9" r="2.60" class="f-ac s-bg" stroke-width="0.4"/>
<circle cx="196.6" cy="174.2" r="2.60" class="f-ac s-bg" stroke-width="0.4"/>
<circle cx="215.5" cy="182.5" r="2.60" class="f-ac s-bg" stroke-width="0.4"/>
<circle cx="212.4" cy="183.5" r="2.60" class="f-ac s-bg" stroke-width="0.4"/>
<circle cx="223.6" cy="184.9" r="2.60" class="f-ac s-bg" stroke-width="0.4"/>
<circle cx="224.6" cy="188.1" r="2.60" class="f-ac s-bg" stroke-width="0.4"/>
<circle cx="141.6" cy="145.1" r="2.60" class="f-ac s-bg" stroke-width="0.4"/>
<circle cx="141.7" cy="148.5" r="2.60" class="f-ac s-bg" stroke-width="0.4"/>
<circle cx="154.3" cy="152.7" r="2.60" class="f-ac s-bg" stroke-width="0.4"/>
<circle cx="152.3" cy="156.5" r="2.60" class="f-ac s-bg" stroke-width="0.4"/>
<circle cx="168.0" cy="163.2" r="2.60" class="f-ac s-bg" stroke-width="0.4"/>
<circle cx="164.7" cy="169.4" r="2.60" class="f-ac s-bg" stroke-width="0.4"/>
<circle cx="185.3" cy="171.8" r="2.60" class="f-ac s-bg" stroke-width="0.4"/>
<circle cx="174.1" cy="174.5" r="2.60" class="f-ac s-bg" stroke-width="0.4"/>
<circle cx="185.7" cy="176.8" r="2.60" class="f-ac s-bg" stroke-width="0.4"/>
<circle cx="182.0" cy="177.1" r="2.60" class="f-ac s-bg" stroke-width="0.4"/>
<circle cx="201.0" cy="182.3" r="2.60" class="f-ac s-bg" stroke-width="0.4"/>
<circle cx="172.5" cy="170.4" r="2.60" class="f-ac s-bg" stroke-width="0.4"/>
<circle cx="191.2" cy="178.8" r="2.60" class="f-ac s-bg" stroke-width="0.4"/>
<circle cx="209.9" cy="182.9" r="2.60" class="f-ac s-bg" stroke-width="0.4"/>
<circle cx="139.8" cy="149.3" r="2.60" class="f-ac s-bg" stroke-width="0.4"/>
<circle cx="149.5" cy="157.9" r="2.60" class="f-ac s-bg" stroke-width="0.4"/>
<circle cx="158.2" cy="164.5" r="2.60" class="f-ac s-bg" stroke-width="0.4"/>
<circle cx="162.5" cy="166.7" r="2.60" class="f-ac s-bg" stroke-width="0.4"/>
<circle cx="168.6" cy="171.8" r="2.60" class="f-ac s-bg" stroke-width="0.4"/>
<circle cx="163.1" cy="163.0" r="2.60" class="f-ac s-bg" stroke-width="0.4"/>
<circle cx="236.8" cy="186.8" r="2.60" class="f-ac s-bg" stroke-width="0.4"/>
<circle cx="234.4" cy="183.1" r="2.60" class="f-ac s-bg" stroke-width="0.4"/>
<circle cx="233.8" cy="181.9" r="2.60" class="f-ac s-bg" stroke-width="0.4"/>
<circle cx="235.8" cy="184.9" r="2.60" class="f-ac s-bg" stroke-width="0.4"/>
<circle cx="223.9" cy="184.9" r="2.60" class="f-ac s-bg" stroke-width="0.4"/>
<circle cx="233.4" cy="187.8" r="2.60" class="f-ac s-bg" stroke-width="0.4"/>
<circle cx="226.8" cy="182.8" r="2.60" class="f-ac s-bg" stroke-width="0.4"/>
<circle cx="218.8" cy="178.6" r="2.60" class="f-ac s-bg" stroke-width="0.4"/>
<circle cx="231.5" cy="183.0" r="2.60" class="f-ac s-bg" stroke-width="0.4"/>
<circle cx="226.4" cy="179.9" r="2.60" class="f-ac s-bg" stroke-width="0.4"/>
<circle cx="232.7" cy="181.8" r="2.60" class="f-ac s-bg" stroke-width="0.4"/>
<circle cx="248.2" cy="192.4" r="2.60" class="f-ac s-bg" stroke-width="0.4"/>
<circle cx="176.2" cy="165.4" r="2.60" class="f-ac s-bg" stroke-width="0.4"/>
<circle cx="195.5" cy="173.5" r="2.60" class="f-ac s-bg" stroke-width="0.4"/>
<circle cx="213.8" cy="180.4" r="2.60" class="f-ac s-bg" stroke-width="0.4"/>
<circle cx="191.6" cy="167.8" r="2.60" class="f-ac s-bg" stroke-width="0.4"/>
<circle cx="205.2" cy="174.1" r="2.60" class="f-ac s-bg" stroke-width="0.4"/>
<circle cx="205.1" cy="173.9" r="2.60" class="f-ac s-bg" stroke-width="0.4"/>
<circle cx="216.3" cy="176.8" r="2.60" class="f-ac s-bg" stroke-width="0.4"/>
<circle cx="240.5" cy="189.6" r="2.60" class="f-ac s-bg" stroke-width="0.4"/>
<circle cx="231.0" cy="182.0" r="2.60" class="f-ac s-bg" stroke-width="0.4"/>
<circle cx="256.9" cy="197.6" r="2.60" class="f-ac s-bg" stroke-width="0.4"/>
<circle cx="264.9" cy="204.3" r="2.60" class="f-ac s-bg" stroke-width="0.4"/>
<circle cx="164.1" cy="158.8" r="2.60" class="f-ac s-bg" stroke-width="0.4"/>
<circle cx="168.5" cy="158.4" r="2.60" class="f-ac s-bg" stroke-width="0.4"/>
<circle cx="176.0" cy="161.3" r="2.60" class="f-ac s-bg" stroke-width="0.4"/>
<circle cx="186.9" cy="167.2" r="2.60" class="f-ac s-bg" stroke-width="0.4"/>
<circle cx="224.7" cy="186.6" r="2.60" class="f-ac s-bg" stroke-width="0.4"/>
<circle cx="273.5" cy="213.8" r="2.60" class="f-ac s-bg" stroke-width="0.4"/>
<circle cx="260.2" cy="203.2" r="2.60" class="f-ac s-bg" stroke-width="0.4"/>
<circle cx="302.5" cy="226.8" r="2.60" class="f-ac s-bg" stroke-width="0.4"/>
<circle cx="215.0" cy="184.5" r="2.60" class="f-ac s-bg" stroke-width="0.4"/>
<circle cx="221.3" cy="179.4" r="2.60" class="f-ac s-bg" stroke-width="0.4"/>
<circle cx="191.7" cy="164.7" r="2.60" class="f-ac s-bg" stroke-width="0.4"/>
<circle cx="181.1" cy="159.7" r="2.60" class="f-ac s-bg" stroke-width="0.4"/>
<circle cx="209.6" cy="174.2" r="2.60" class="f-ac s-bg" stroke-width="0.4"/>
<circle cx="182.4" cy="160.3" r="2.60" class="f-ac s-bg" stroke-width="0.4"/>
<circle cx="175.1" cy="157.0" r="2.60" class="f-ac s-bg" stroke-width="0.4"/>
<circle cx="178.7" cy="158.7" r="2.60" class="f-ac s-bg" stroke-width="0.4"/>
<circle cx="175.2" cy="157.1" r="2.60" class="f-ac s-bg" stroke-width="0.4"/>
<circle cx="174.3" cy="157.0" r="2.60" class="f-ac s-bg" stroke-width="0.4"/>
<circle cx="174.1" cy="156.8" r="2.60" class="f-ac s-bg" stroke-width="0.4"/>
<circle cx="171.7" cy="155.0" r="2.60" class="f-ac s-bg" stroke-width="0.4"/>
<circle cx="189.1" cy="164.1" r="2.60" class="f-ac s-bg" stroke-width="0.4"/>
<circle cx="175.2" cy="157.2" r="2.60" class="f-ac s-bg" stroke-width="0.4"/>
<circle cx="174.9" cy="157.1" r="2.60" class="f-ac s-bg" stroke-width="0.4"/>
<circle cx="175.0" cy="157.5" r="2.60" class="f-ac s-bg" stroke-width="0.4"/>
<circle cx="175.0" cy="157.5" r="2.60" class="f-ac s-bg" stroke-width="0.4"/>
<circle cx="175.3" cy="157.8" r="2.60" class="f-ac s-bg" stroke-width="0.4"/>
<circle cx="172.3" cy="156.1" r="2.60" class="f-ac s-bg" stroke-width="0.4"/>
<circle cx="173.7" cy="157.0" r="2.60" class="f-ac s-bg" stroke-width="0.4"/>
<circle cx="174.4" cy="157.5" r="2.60" class="f-ac s-bg" stroke-width="0.4"/>
<circle cx="162.5" cy="150.5" r="2.60" class="f-ac s-bg" stroke-width="0.4"/>
<circle cx="159.7" cy="149.2" r="2.60" class="f-ac s-bg" stroke-width="0.4"/>
<circle cx="169.8" cy="154.9" r="2.60" class="f-ac s-bg" stroke-width="0.4"/>
<circle cx="169.4" cy="154.8" r="2.60" class="f-ac s-bg" stroke-width="0.4"/>
<circle cx="144.0" cy="140.0" r="2.60" class="f-ac s-bg" stroke-width="0.4"/>
<circle cx="170.7" cy="171.6" r="2.60" class="f-ac s-bg" stroke-width="0.4"/>
<circle cx="164.0" cy="168.8" r="2.60" class="f-ac s-bg" stroke-width="0.4"/>
<circle cx="161.3" cy="166.3" r="2.60" class="f-ac s-bg" stroke-width="0.4"/>
<circle cx="159.7" cy="161.9" r="2.60" class="f-ac s-bg" stroke-width="0.4"/>
<circle cx="155.5" cy="154.2" r="2.60" class="f-ac s-bg" stroke-width="0.4"/>
<circle cx="206.7" cy="190.8" r="2.60" class="f-ac s-bg" stroke-width="0.4"/>
<circle cx="188.9" cy="179.9" r="2.60" class="f-ac s-bg" stroke-width="0.4"/>
<circle cx="157.5" cy="160.2" r="2.60" class="f-ac s-bg" stroke-width="0.4"/>
<circle cx="156.5" cy="154.5" r="2.60" class="f-ac s-bg" stroke-width="0.4"/>
<circle cx="157.9" cy="152.2" r="2.60" class="f-ac s-bg" stroke-width="0.4"/>
<circle cx="176.0" cy="162.3" r="2.60" class="f-ac s-bg" stroke-width="0.4"/>
<circle cx="219.0" cy="195.8" r="2.60" class="f-ac s-bg" stroke-width="0.4"/>
<circle cx="189.3" cy="176.1" r="2.60" class="f-ac s-bg" stroke-width="0.4"/>
<circle cx="165.0" cy="155.6" r="2.60" class="f-ac s-bg" stroke-width="0.4"/>
<circle cx="226.3" cy="199.3" r="2.60" class="f-ac s-bg" stroke-width="0.4"/>
<circle cx="197.0" cy="179.4" r="2.60" class="f-ac s-bg" stroke-width="0.4"/>
<circle cx="148.7" cy="144.0" r="2.60" class="f-ac s-bg" stroke-width="0.4"/>
<circle cx="207.5" cy="186.4" r="2.60" class="f-ac s-bg" stroke-width="0.4"/>
<circle cx="175.1" cy="163.4" r="2.60" class="f-ac s-bg" stroke-width="0.4"/>
<circle cx="262.5" cy="205.3" r="2.60" class="f-ac s-bg" stroke-width="0.4"/>
<circle cx="228.4" cy="191.2" r="2.60" class="f-ac s-bg" stroke-width="0.4"/>
<circle cx="194.8" cy="170.2" r="2.60" class="f-ac s-bg" stroke-width="0.4"/>
<circle cx="235.8" cy="192.0" r="2.60" class="f-ac s-bg" stroke-width="0.4"/>
<circle cx="165.4" cy="152.0" r="2.60" class="f-ac s-bg" stroke-width="0.4"/>
<circle cx="184.5" cy="162.7" r="2.60" class="f-ac s-bg" stroke-width="0.4"/>
<circle cx="159.2" cy="148.1" r="2.60" class="f-ac s-bg" stroke-width="0.4"/>
<circle cx="147.3" cy="141.6" r="2.60" class="f-ac s-bg" stroke-width="0.4"/>
<circle cx="140.4" cy="136.5" r="2.60" class="f-ac s-bg" stroke-width="0.4"/>
<circle cx="177.9" cy="161.7" r="2.60" class="f-ac s-bg" stroke-width="0.4"/>
<circle cx="144.9" cy="139.7" r="2.60" class="f-ac s-bg" stroke-width="0.4"/>
<circle cx="165.7" cy="153.1" r="2.60" class="f-ac s-bg" stroke-width="0.4"/>
<circle cx="144.9" cy="139.7" r="2.60" class="f-ac s-bg" stroke-width="0.4"/>
<circle cx="164.1" cy="151.4" r="2.60" class="f-ac s-bg" stroke-width="0.4"/>
<circle cx="144.4" cy="139.5" r="2.60" class="f-ac s-bg" stroke-width="0.4"/>
<circle cx="132.3" cy="132.0" r="2.60" class="f-ac s-bg" stroke-width="0.4"/>
<circle cx="143.8" cy="139.2" r="2.60" class="f-ac s-bg" stroke-width="0.4"/>
<circle cx="131.0" cy="131.6" r="2.60" class="f-ac s-bg" stroke-width="0.4"/>
<circle cx="142.4" cy="138.6" r="2.60" class="f-ac s-bg" stroke-width="0.4"/>
<circle cx="119.1" cy="124.4" r="2.60" class="f-ac s-bg" stroke-width="0.4"/>
<circle cx="128.3" cy="130.3" r="2.60" class="f-ac s-bg" stroke-width="0.4"/>
<circle cx="132.8" cy="133.2" r="2.60" class="f-ac s-bg" stroke-width="0.4"/>
<circle cx="110.3" cy="119.9" r="2.60" class="f-ac s-bg" stroke-width="0.4"/>
<circle cx="123.0" cy="127.6" r="2.60" class="f-ac s-bg" stroke-width="0.4"/>
<circle cx="123.2" cy="127.9" r="2.60" class="f-ac s-bg" stroke-width="0.4"/>
<circle cx="123.2" cy="125.1" r="2.60" class="f-ac s-bg" stroke-width="0.4"/>
<circle cx="128.6" cy="128.7" r="2.60" class="f-ac s-bg" stroke-width="0.4"/>
<circle cx="117.3" cy="121.1" r="2.60" class="f-ac s-bg" stroke-width="0.4"/>
<circle cx="116.1" cy="120.8" r="2.60" class="f-ac s-bg" stroke-width="0.4"/>
<circle cx="128.6" cy="129.1" r="2.60" class="f-ac s-bg" stroke-width="0.4"/>
<circle cx="123.4" cy="126.0" r="2.60" class="f-ac s-bg" stroke-width="0.4"/>
<circle cx="112.4" cy="120.5" r="2.60" class="f-ac s-bg" stroke-width="0.4"/>
<circle cx="108.2" cy="118.6" r="2.60" class="f-ac s-bg" stroke-width="0.4"/>
<circle cx="110.8" cy="120.3" r="2.60" class="f-ac s-bg" stroke-width="0.4"/>
<circle cx="124.8" cy="128.8" r="2.60" class="f-ac s-bg" stroke-width="0.4"/>
<line x1="108.0" y1="122.7" x2="122.0" y2="122.7" class="s-bd" stroke-width="2.2"/>
<line x1="115.0" y1="115.7" x2="115.0" y2="129.7" class="s-bd" stroke-width="2.2"/>
<line x1="70.0" y1="250.0" x2="340.0" y2="250.0" class="s-mu" stroke-width="1"/>
<line x1="70.0" y1="250.0" x2="70.0" y2="254.0" class="s-mu" stroke-width="1"/>
<text x="70.0" y="265.0" class="f-mu" font-size="10" text-anchor="middle">3</text>
<line x1="137.5" y1="250.0" x2="137.5" y2="254.0" class="s-mu" stroke-width="1"/>
<text x="137.5" y="265.0" class="f-mu" font-size="10" text-anchor="middle">6</text>
<line x1="205.0" y1="250.0" x2="205.0" y2="254.0" class="s-mu" stroke-width="1"/>
<text x="205.0" y="265.0" class="f-mu" font-size="10" text-anchor="middle">9</text>
<line x1="272.5" y1="250.0" x2="272.5" y2="254.0" class="s-mu" stroke-width="1"/>
<text x="272.5" y="265.0" class="f-mu" font-size="10" text-anchor="middle">12</text>
<line x1="340.0" y1="250.0" x2="340.0" y2="254.0" class="s-mu" stroke-width="1"/>
<text x="340.0" y="265.0" class="f-mu" font-size="10" text-anchor="middle">15</text>
<text x="205.0" y="282.0" class="f-mu" font-size="11" text-anchor="middle">지역 상수</text>
<line x1="70.0" y1="50.0" x2="70.0" y2="250.0" class="s-mu" stroke-width="1"/>
<line x1="66.0" y1="231.8" x2="70.0" y2="231.8" class="s-mu" stroke-width="1"/>
<text x="63.0" y="235.8" class="f-mu" font-size="10" text-anchor="end">0</text>
<line x1="66.0" y1="195.5" x2="70.0" y2="195.5" class="s-mu" stroke-width="1"/>
<text x="63.0" y="199.5" class="f-mu" font-size="10" text-anchor="end">0.1</text>
<line x1="66.0" y1="159.1" x2="70.0" y2="159.1" class="s-mu" stroke-width="1"/>
<text x="63.0" y="163.1" class="f-mu" font-size="10" text-anchor="end">0.2</text>
<line x1="66.0" y1="122.7" x2="70.0" y2="122.7" class="s-mu" stroke-width="1"/>
<text x="63.0" y="126.7" class="f-mu" font-size="10" text-anchor="end">0.3</text>
<line x1="66.0" y1="86.4" x2="70.0" y2="86.4" class="s-mu" stroke-width="1"/>
<text x="63.0" y="90.4" class="f-mu" font-size="10" text-anchor="end">0.4</text>
<line x1="66.0" y1="50.0" x2="70.0" y2="50.0" class="s-mu" stroke-width="1"/>
<text x="63.0" y="54.0" class="f-mu" font-size="10" text-anchor="end">0.5</text>
<text x="62.0" y="40.0" class="f-mu" font-size="11" text-anchor="start">지역 고령비율 계수</text>
<text x="205.0" y="18.0" class="f-fg" font-size="12" text-anchor="middle" font-weight="600">원래 변수 · 상관 −0.96</text>
<circle cx="563.8" cy="157.5" r="2.60" class="f-ac s-bg" stroke-width="0.4"/>
<circle cx="552.8" cy="156.3" r="2.60" class="f-ac s-bg" stroke-width="0.4"/>
<circle cx="578.2" cy="166.6" r="2.60" class="f-ac s-bg" stroke-width="0.4"/>
<circle cx="585.2" cy="174.1" r="2.60" class="f-ac s-bg" stroke-width="0.4"/>
<circle cx="597.8" cy="176.6" r="2.60" class="f-ac s-bg" stroke-width="0.4"/>
<circle cx="596.5" cy="181.6" r="2.60" class="f-ac s-bg" stroke-width="0.4"/>
<circle cx="613.6" cy="185.2" r="2.60" class="f-ac s-bg" stroke-width="0.4"/>
<circle cx="618.7" cy="191.2" r="2.60" class="f-ac s-bg" stroke-width="0.4"/>
<circle cx="627.1" cy="188.9" r="2.60" class="f-ac s-bg" stroke-width="0.4"/>
<circle cx="531.2" cy="146.9" r="2.60" class="f-ac s-bg" stroke-width="0.4"/>
<circle cx="536.0" cy="154.1" r="2.60" class="f-ac s-bg" stroke-width="0.4"/>
<circle cx="564.1" cy="165.1" r="2.60" class="f-ac s-bg" stroke-width="0.4"/>
<circle cx="541.0" cy="164.0" r="2.60" class="f-ac s-bg" stroke-width="0.4"/>
<circle cx="570.2" cy="172.9" r="2.60" class="f-ac s-bg" stroke-width="0.4"/>
<circle cx="557.2" cy="174.2" r="2.60" class="f-ac s-bg" stroke-width="0.4"/>
<circle cx="581.8" cy="182.5" r="2.60" class="f-ac s-bg" stroke-width="0.4"/>
<circle cx="566.5" cy="183.5" r="2.60" class="f-ac s-bg" stroke-width="0.4"/>
<circle cx="598.2" cy="184.9" r="2.60" class="f-ac s-bg" stroke-width="0.4"/>
<circle cx="586.4" cy="188.1" r="2.60" class="f-ac s-bg" stroke-width="0.4"/>
<circle cx="508.2" cy="145.1" r="2.60" class="f-ac s-bg" stroke-width="0.4"/>
<circle cx="492.4" cy="148.5" r="2.60" class="f-ac s-bg" stroke-width="0.4"/>
<circle cx="515.6" cy="152.7" r="2.60" class="f-ac s-bg" stroke-width="0.4"/>
<circle cx="490.2" cy="156.5" r="2.60" class="f-ac s-bg" stroke-width="0.4"/>
<circle cx="511.9" cy="163.2" r="2.60" class="f-ac s-bg" stroke-width="0.4"/>
<circle cx="470.9" cy="169.4" r="2.60" class="f-ac s-bg" stroke-width="0.4"/>
<circle cx="529.9" cy="171.8" r="2.60" class="f-ac s-bg" stroke-width="0.4"/>
<circle cx="478.4" cy="174.5" r="2.60" class="f-ac s-bg" stroke-width="0.4"/>
<circle cx="507.6" cy="176.8" r="2.60" class="f-ac s-bg" stroke-width="0.4"/>
<circle cx="492.9" cy="177.1" r="2.60" class="f-ac s-bg" stroke-width="0.4"/>
<circle cx="533.1" cy="182.3" r="2.60" class="f-ac s-bg" stroke-width="0.4"/>
<circle cx="492.7" cy="170.4" r="2.60" class="f-ac s-bg" stroke-width="0.4"/>
<circle cx="516.4" cy="178.8" r="2.60" class="f-ac s-bg" stroke-width="0.4"/>
<circle cx="560.7" cy="182.9" r="2.60" class="f-ac s-bg" stroke-width="0.4"/>
<circle cx="481.7" cy="149.3" r="2.60" class="f-ac s-bg" stroke-width="0.4"/>
<circle cx="473.7" cy="157.9" r="2.60" class="f-ac s-bg" stroke-width="0.4"/>
<circle cx="471.9" cy="164.5" r="2.60" class="f-ac s-bg" stroke-width="0.4"/>
<circle cx="476.5" cy="166.7" r="2.60" class="f-ac s-bg" stroke-width="0.4"/>
<circle cx="472.9" cy="171.8" r="2.60" class="f-ac s-bg" stroke-width="0.4"/>
<circle cx="496.0" cy="163.0" r="2.60" class="f-ac s-bg" stroke-width="0.4"/>
<circle cx="634.7" cy="186.8" r="2.60" class="f-ac s-bg" stroke-width="0.4"/>
<circle cx="643.9" cy="183.1" r="2.60" class="f-ac s-bg" stroke-width="0.4"/>
<circle cx="647.5" cy="181.9" r="2.60" class="f-ac s-bg" stroke-width="0.4"/>
<circle cx="640.2" cy="184.9" r="2.60" class="f-ac s-bg" stroke-width="0.4"/>
<circle cx="599.6" cy="184.9" r="2.60" class="f-ac s-bg" stroke-width="0.4"/>
<circle cx="618.2" cy="187.8" r="2.60" class="f-ac s-bg" stroke-width="0.4"/>
<circle cx="619.1" cy="182.8" r="2.60" class="f-ac s-bg" stroke-width="0.4"/>
<circle cx="612.0" cy="178.6" r="2.60" class="f-ac s-bg" stroke-width="0.4"/>
<circle cx="634.5" cy="183.0" r="2.60" class="f-ac s-bg" stroke-width="0.4"/>
<circle cx="631.7" cy="179.9" r="2.60" class="f-ac s-bg" stroke-width="0.4"/>
<circle cx="644.5" cy="181.8" r="2.60" class="f-ac s-bg" stroke-width="0.4"/>
<circle cx="646.5" cy="192.4" r="2.60" class="f-ac s-bg" stroke-width="0.4"/>
<circle cx="529.4" cy="165.4" r="2.60" class="f-ac s-bg" stroke-width="0.4"/>
<circle cx="556.3" cy="173.5" r="2.60" class="f-ac s-bg" stroke-width="0.4"/>
<circle cx="586.5" cy="180.4" r="2.60" class="f-ac s-bg" stroke-width="0.4"/>
<circle cx="570.7" cy="167.8" r="2.60" class="f-ac s-bg" stroke-width="0.4"/>
<circle cx="587.3" cy="174.1" r="2.60" class="f-ac s-bg" stroke-width="0.4"/>
<circle cx="587.7" cy="173.9" r="2.60" class="f-ac s-bg" stroke-width="0.4"/>
<circle cx="612.2" cy="176.8" r="2.60" class="f-ac s-bg" stroke-width="0.4"/>
<circle cx="633.8" cy="189.6" r="2.60" class="f-ac s-bg" stroke-width="0.4"/>
<circle cx="637.4" cy="182.0" r="2.60" class="f-ac s-bg" stroke-width="0.4"/>
<circle cx="651.7" cy="197.6" r="2.60" class="f-ac s-bg" stroke-width="0.4"/>
<circle cx="647.0" cy="204.3" r="2.60" class="f-ac s-bg" stroke-width="0.4"/>
<circle cx="519.7" cy="158.8" r="2.60" class="f-ac s-bg" stroke-width="0.4"/>
<circle cx="536.9" cy="158.4" r="2.60" class="f-ac s-bg" stroke-width="0.4"/>
<circle cx="548.6" cy="161.3" r="2.60" class="f-ac s-bg" stroke-width="0.4"/>
<circle cx="557.6" cy="167.2" r="2.60" class="f-ac s-bg" stroke-width="0.4"/>
<circle cx="593.7" cy="186.6" r="2.60" class="f-ac s-bg" stroke-width="0.4"/>
<circle cx="631.0" cy="213.8" r="2.60" class="f-ac s-bg" stroke-width="0.4"/>
<circle cx="635.9" cy="203.2" r="2.60" class="f-ac s-bg" stroke-width="0.4"/>
<circle cx="667.6" cy="226.8" r="2.60" class="f-ac s-bg" stroke-width="0.4"/>
<circle cx="570.5" cy="184.5" r="2.60" class="f-ac s-bg" stroke-width="0.4"/>
<circle cx="616.7" cy="179.4" r="2.60" class="f-ac s-bg" stroke-width="0.4"/>
<circle cx="585.9" cy="164.7" r="2.60" class="f-ac s-bg" stroke-width="0.4"/>
<circle cx="573.6" cy="159.7" r="2.60" class="f-ac s-bg" stroke-width="0.4"/>
<circle cx="601.9" cy="174.2" r="2.60" class="f-ac s-bg" stroke-width="0.4"/>
<circle cx="575.2" cy="160.3" r="2.60" class="f-ac s-bg" stroke-width="0.4"/>
<circle cx="565.8" cy="157.0" r="2.60" class="f-ac s-bg" stroke-width="0.4"/>
<circle cx="570.1" cy="158.7" r="2.60" class="f-ac s-bg" stroke-width="0.4"/>
<circle cx="565.8" cy="157.1" r="2.60" class="f-ac s-bg" stroke-width="0.4"/>
<circle cx="563.3" cy="157.0" r="2.60" class="f-ac s-bg" stroke-width="0.4"/>
<circle cx="563.5" cy="156.8" r="2.60" class="f-ac s-bg" stroke-width="0.4"/>
<circle cx="564.0" cy="155.0" r="2.60" class="f-ac s-bg" stroke-width="0.4"/>
<circle cx="579.7" cy="164.1" r="2.60" class="f-ac s-bg" stroke-width="0.4"/>
<circle cx="565.0" cy="157.2" r="2.60" class="f-ac s-bg" stroke-width="0.4"/>
<circle cx="564.7" cy="157.1" r="2.60" class="f-ac s-bg" stroke-width="0.4"/>
<circle cx="563.6" cy="157.5" r="2.60" class="f-ac s-bg" stroke-width="0.4"/>
<circle cx="563.1" cy="157.5" r="2.60" class="f-ac s-bg" stroke-width="0.4"/>
<circle cx="562.7" cy="157.8" r="2.60" class="f-ac s-bg" stroke-width="0.4"/>
<circle cx="561.1" cy="156.1" r="2.60" class="f-ac s-bg" stroke-width="0.4"/>
<circle cx="561.3" cy="157.0" r="2.60" class="f-ac s-bg" stroke-width="0.4"/>
<circle cx="561.3" cy="157.5" r="2.60" class="f-ac s-bg" stroke-width="0.4"/>
<circle cx="554.0" cy="150.5" r="2.60" class="f-ac s-bg" stroke-width="0.4"/>
<circle cx="550.9" cy="149.2" r="2.60" class="f-ac s-bg" stroke-width="0.4"/>
<circle cx="557.9" cy="154.9" r="2.60" class="f-ac s-bg" stroke-width="0.4"/>
<circle cx="557.0" cy="154.8" r="2.60" class="f-ac s-bg" stroke-width="0.4"/>
<circle cx="541.0" cy="140.0" r="2.60" class="f-ac s-bg" stroke-width="0.4"/>
<circle cx="480.8" cy="171.6" r="2.60" class="f-ac s-bg" stroke-width="0.4"/>
<circle cx="471.3" cy="168.8" r="2.60" class="f-ac s-bg" stroke-width="0.4"/>
<circle cx="474.1" cy="166.3" r="2.60" class="f-ac s-bg" stroke-width="0.4"/>
<circle cx="489.7" cy="161.9" r="2.60" class="f-ac s-bg" stroke-width="0.4"/>
<circle cx="512.1" cy="154.2" r="2.60" class="f-ac s-bg" stroke-width="0.4"/>
<circle cx="512.2" cy="190.8" r="2.60" class="f-ac s-bg" stroke-width="0.4"/>
<circle cx="503.6" cy="179.9" r="2.60" class="f-ac s-bg" stroke-width="0.4"/>
<circle cx="490.4" cy="160.2" r="2.60" class="f-ac s-bg" stroke-width="0.4"/>
<circle cx="514.2" cy="154.5" r="2.60" class="f-ac s-bg" stroke-width="0.4"/>
<circle cx="529.9" cy="152.2" r="2.60" class="f-ac s-bg" stroke-width="0.4"/>
<circle cx="543.9" cy="162.3" r="2.60" class="f-ac s-bg" stroke-width="0.4"/>
<circle cx="530.2" cy="195.8" r="2.60" class="f-ac s-bg" stroke-width="0.4"/>
<circle cx="523.1" cy="176.1" r="2.60" class="f-ac s-bg" stroke-width="0.4"/>
<circle cx="537.8" cy="155.6" r="2.60" class="f-ac s-bg" stroke-width="0.4"/>
<circle cx="538.2" cy="199.3" r="2.60" class="f-ac s-bg" stroke-width="0.4"/>
<circle cx="533.6" cy="179.4" r="2.60" class="f-ac s-bg" stroke-width="0.4"/>
<circle cx="538.2" cy="144.0" r="2.60" class="f-ac s-bg" stroke-width="0.4"/>
<circle cx="536.2" cy="186.4" r="2.60" class="f-ac s-bg" stroke-width="0.4"/>
<circle cx="535.1" cy="163.4" r="2.60" class="f-ac s-bg" stroke-width="0.4"/>
<circle cx="634.1" cy="205.3" r="2.60" class="f-ac s-bg" stroke-width="0.4"/>
<circle cx="584.5" cy="191.2" r="2.60" class="f-ac s-bg" stroke-width="0.4"/>
<circle cx="570.3" cy="170.2" r="2.60" class="f-ac s-bg" stroke-width="0.4"/>
<circle cx="606.2" cy="192.0" r="2.60" class="f-ac s-bg" stroke-width="0.4"/>
<circle cx="556.5" cy="152.0" r="2.60" class="f-ac s-bg" stroke-width="0.4"/>
<circle cx="571.0" cy="162.7" r="2.60" class="f-ac s-bg" stroke-width="0.4"/>
<circle cx="554.2" cy="148.1" r="2.60" class="f-ac s-bg" stroke-width="0.4"/>
<circle cx="544.6" cy="141.6" r="2.60" class="f-ac s-bg" stroke-width="0.4"/>
<circle cx="545.4" cy="136.5" r="2.60" class="f-ac s-bg" stroke-width="0.4"/>
<circle cx="552.8" cy="161.7" r="2.60" class="f-ac s-bg" stroke-width="0.4"/>
<circle cx="545.6" cy="139.7" r="2.60" class="f-ac s-bg" stroke-width="0.4"/>
<circle cx="552.7" cy="153.1" r="2.60" class="f-ac s-bg" stroke-width="0.4"/>
<circle cx="545.6" cy="139.7" r="2.60" class="f-ac s-bg" stroke-width="0.4"/>
<circle cx="554.9" cy="151.4" r="2.60" class="f-ac s-bg" stroke-width="0.4"/>
<circle cx="544.7" cy="139.5" r="2.60" class="f-ac s-bg" stroke-width="0.4"/>
<circle cx="539.5" cy="132.0" r="2.60" class="f-ac s-bg" stroke-width="0.4"/>
<circle cx="544.0" cy="139.2" r="2.60" class="f-ac s-bg" stroke-width="0.4"/>
<circle cx="536.9" cy="131.6" r="2.60" class="f-ac s-bg" stroke-width="0.4"/>
<circle cx="542.5" cy="138.6" r="2.60" class="f-ac s-bg" stroke-width="0.4"/>
<circle cx="530.4" cy="124.4" r="2.60" class="f-ac s-bg" stroke-width="0.4"/>
<circle cx="533.8" cy="130.3" r="2.60" class="f-ac s-bg" stroke-width="0.4"/>
<circle cx="535.3" cy="133.2" r="2.60" class="f-ac s-bg" stroke-width="0.4"/>
<circle cx="522.1" cy="119.9" r="2.60" class="f-ac s-bg" stroke-width="0.4"/>
<circle cx="528.6" cy="127.6" r="2.60" class="f-ac s-bg" stroke-width="0.4"/>
<circle cx="527.9" cy="127.9" r="2.60" class="f-ac s-bg" stroke-width="0.4"/>
<circle cx="541.2" cy="125.1" r="2.60" class="f-ac s-bg" stroke-width="0.4"/>
<circle cx="542.4" cy="128.7" r="2.60" class="f-ac s-bg" stroke-width="0.4"/>
<circle cx="540.2" cy="121.1" r="2.60" class="f-ac s-bg" stroke-width="0.4"/>
<circle cx="537.6" cy="120.8" r="2.60" class="f-ac s-bg" stroke-width="0.4"/>
<circle cx="540.3" cy="129.1" r="2.60" class="f-ac s-bg" stroke-width="0.4"/>
<circle cx="537.5" cy="126.0" r="2.60" class="f-ac s-bg" stroke-width="0.4"/>
<circle cx="526.4" cy="120.5" r="2.60" class="f-ac s-bg" stroke-width="0.4"/>
<circle cx="521.3" cy="118.6" r="2.60" class="f-ac s-bg" stroke-width="0.4"/>
<circle cx="521.9" cy="120.3" r="2.60" class="f-ac s-bg" stroke-width="0.4"/>
<circle cx="528.9" cy="128.8" r="2.60" class="f-ac s-bg" stroke-width="0.4"/>
<line x1="517.5" y1="122.7" x2="531.5" y2="122.7" class="s-bd" stroke-width="2.2"/>
<line x1="524.5" y1="115.7" x2="524.5" y2="129.7" class="s-bd" stroke-width="2.2"/>
<line x1="425.0" y1="250.0" x2="695.0" y2="250.0" class="s-mu" stroke-width="1"/>
<line x1="463.6" y1="250.0" x2="463.6" y2="254.0" class="s-mu" stroke-width="1"/>
<text x="463.6" y="265.0" class="f-mu" font-size="10" text-anchor="middle">11</text>
<line x1="540.7" y1="250.0" x2="540.7" y2="254.0" class="s-mu" stroke-width="1"/>
<text x="540.7" y="265.0" class="f-mu" font-size="10" text-anchor="middle">12</text>
<line x1="617.9" y1="250.0" x2="617.9" y2="254.0" class="s-mu" stroke-width="1"/>
<text x="617.9" y="265.0" class="f-mu" font-size="10" text-anchor="middle">13</text>
<line x1="695.0" y1="250.0" x2="695.0" y2="254.0" class="s-mu" stroke-width="1"/>
<text x="695.0" y="265.0" class="f-mu" font-size="10" text-anchor="middle">14</text>
<text x="560.0" y="282.0" class="f-mu" font-size="11" text-anchor="middle">지역 상수</text>
<line x1="425.0" y1="50.0" x2="425.0" y2="250.0" class="s-mu" stroke-width="1"/>
<line x1="421.0" y1="231.8" x2="425.0" y2="231.8" class="s-mu" stroke-width="1"/>
<text x="418.0" y="235.8" class="f-mu" font-size="10" text-anchor="end">0</text>
<line x1="421.0" y1="195.5" x2="425.0" y2="195.5" class="s-mu" stroke-width="1"/>
<text x="418.0" y="199.5" class="f-mu" font-size="10" text-anchor="end">0.1</text>
<line x1="421.0" y1="159.1" x2="425.0" y2="159.1" class="s-mu" stroke-width="1"/>
<text x="418.0" y="163.1" class="f-mu" font-size="10" text-anchor="end">0.2</text>
<line x1="421.0" y1="122.7" x2="425.0" y2="122.7" class="s-mu" stroke-width="1"/>
<text x="418.0" y="126.7" class="f-mu" font-size="10" text-anchor="end">0.3</text>
<line x1="421.0" y1="86.4" x2="425.0" y2="86.4" class="s-mu" stroke-width="1"/>
<text x="418.0" y="90.4" class="f-mu" font-size="10" text-anchor="end">0.4</text>
<line x1="421.0" y1="50.0" x2="425.0" y2="50.0" class="s-mu" stroke-width="1"/>
<text x="418.0" y="54.0" class="f-mu" font-size="10" text-anchor="end">0.5</text>
<text x="417.0" y="40.0" class="f-mu" font-size="11" text-anchor="start">지역 고령비율 계수</text>
<text x="560.0" y="18.0" class="f-fg" font-size="12" text-anchor="middle" font-weight="600">고령비율 중심화 (평균 22.6 뺌) · 상관 −0.52</text>
</svg>
