<svg xmlns="http://www.w3.org/2000/svg" class="gsfig" viewBox="0 0 720 300" role="img" aria-label="SKATER. 왼쪽: 이웃한 동끼리 변수 차이(맨해튼 거리)를 길이로 둔 최소 신장 트리(가지 149개). 모든 동을 가장 비슷한 이웃끼리 한 번씩만 잇는 나무임. 주황 굵은 선은 군집 4개를 만들려고 자른 가지 3개. 오른쪽: 자른 결과의 지역 4개. 나무를 잘라 만들므로 지역은 언제나 이어진 한 덩어리임">
<style>
.gsfig{font-family:system-ui,-apple-system,'Apple SD Gothic Neo','Malgun Gothic','Noto Sans KR',sans-serif}
.gsfig .s-fg{stroke:#1c2330}.gsfig .s-mu{stroke:#8a93a3}.gsfig .s-ac{stroke:#2563eb}.gsfig .s-bd{stroke:#c2410c}.gsfig .s-ok{stroke:#15803d}.gsfig .s-bg{stroke:#ffffff}
.gsfig .f-fg{fill:#1c2330}.gsfig .f-mu{fill:#5a6475}.gsfig .f-ac{fill:#2563eb}.gsfig .f-acs{fill:#e6eefe}.gsfig .f-bd{fill:#c2410c}
.gsfig .f-bds{fill:#fdeee6}.gsfig .f-ok{fill:#15803d}.gsfig .f-sf{fill:#f0f2f5}.gsfig .f-bg{fill:#ffffff}
.gsfig .d0{fill:#2166ac}.gsfig .d1{fill:#67a9cf}.gsfig .d2{fill:#d1e5f0}.gsfig .d3{fill:#fddbc7}.gsfig .d4{fill:#ef8a62}.gsfig .d5{fill:#b2182b}
.gsfig .q0{fill:#fff1e0}.gsfig .q1{fill:#fdc98f}.gsfig .q2{fill:#f98f45}.gsfig .q3{fill:#d9530f}.gsfig .q4{fill:#8c2d04}
@media (prefers-color-scheme:dark){
.gsfig .s-fg{stroke:#e6e9ef}.gsfig .s-mu{stroke:#737c8c}.gsfig .s-ac{stroke:#6d9bff}.gsfig .s-bd{stroke:#fb8b5b}.gsfig .s-ok{stroke:#4ade80}.gsfig .s-bg{stroke:#1a1e26}
.gsfig .f-fg{fill:#e6e9ef}.gsfig .f-mu{fill:#a7afbd}.gsfig .f-ac{fill:#6d9bff}.gsfig .f-acs{fill:#1f2b45}.gsfig .f-bd{fill:#fb8b5b}
.gsfig .f-bds{fill:#3a2218}.gsfig .f-ok{fill:#4ade80}.gsfig .f-sf{fill:#222733}.gsfig .f-bg{fill:#1a1e26}}
</style>
<rect x="0" y="0" width="720" height="300" class="f-bg"/>
<polygon points="43.6,58.7 28.7,67.6 23.2,67.4 23.0,65.1 22.4,60.8 21.8,56.5 21.2,52.3 20.6,48.0 20.0,43.7 32.1,36.0 36.5,37.0 40.9,38.0 43.3,38.5 43.6,58.7" class="s-mu f-sf" stroke-width="0.3"/>
<polygon points="53.9,77.3 43.1,84.1 28.7,67.6 43.6,58.7 54.9,64.4 53.9,77.3" class="s-mu f-sf" stroke-width="0.3"/>
<polygon points="66.8,53.9 62.8,61.1 54.9,64.4 43.6,58.7 43.3,38.5 45.3,39.0 49.7,39.7 54.1,40.3 58.4,40.7 62.8,40.9 65.0,41.0 66.8,53.9" class="s-mu f-sf" stroke-width="0.3"/>
<polygon points="82.4,69.9 73.8,72.5 62.8,61.1 66.8,53.9 85.7,57.1 85.9,57.5 82.4,69.9" class="s-mu f-sf" stroke-width="0.3"/>
<polygon points="66.8,53.9 65.0,41.0 67.2,41.1 71.6,41.1 76.0,41.0 80.4,40.9 84.8,40.8 88.9,40.8 85.7,57.1 66.8,53.9" class="s-mu f-sf" stroke-width="0.3"/>
<polygon points="101.9,68.5 97.6,73.8 87.4,74.9 82.4,69.9 85.9,57.5 101.1,61.6 101.9,68.5" class="s-mu f-sf" stroke-width="0.3"/>
<polygon points="85.9,57.5 85.7,57.1 88.9,40.8 89.2,40.8 93.6,40.9 97.9,41.1 102.3,41.6 104.5,41.9 105.7,56.6 101.1,61.6 85.9,57.5" class="s-mu f-sf" stroke-width="0.3"/>
<polygon points="105.7,56.6 120.7,59.2 123.0,64.9 112.3,73.8 101.9,68.5 101.1,61.6 105.7,56.6" class="s-mu f-sf" stroke-width="0.3"/>
<polygon points="120.7,59.2 105.7,56.6 104.5,41.9 106.7,42.2 111.1,43.0 115.5,43.8 119.9,44.6 124.3,45.3 125.8,45.5 120.7,59.2" class="s-mu f-sf" stroke-width="0.3"/>
<polygon points="28.7,67.6 43.1,84.1 41.6,91.7 22.9,96.2 22.8,95.0 23.0,90.7 23.3,86.4 23.6,82.2 23.8,77.9 23.7,73.6 23.5,69.3 23.2,67.4 28.7,67.6" class="s-mu f-sf" stroke-width="0.3"/>
<polygon points="62.9,92.8 47.0,98.3 41.6,91.7 43.1,84.1 53.9,77.3 64.8,84.5 62.9,92.8" class="s-mu f-sf" stroke-width="0.3"/>
<polygon points="64.8,84.5 53.9,77.3 54.9,64.4 62.8,61.1 73.8,72.5 70.1,82.2 64.8,84.5" class="s-mu f-sf" stroke-width="0.3"/>
<polygon points="68.6,101.1 62.9,92.8 64.8,84.5 70.1,82.2 79.4,87.8 79.9,94.0 76.5,99.2 68.6,101.1" class="s-mu f-sf" stroke-width="0.3"/>
<polygon points="73.8,72.5 82.4,69.9 87.4,74.9 86.5,83.6 79.4,87.8 70.1,82.2 73.8,72.5" class="s-mu f-sf" stroke-width="0.3"/>
<polygon points="79.9,94.0 79.4,87.8 86.5,83.6 92.7,87.6 92.3,96.3 91.3,97.3 79.9,94.0" class="s-mu f-sf" stroke-width="0.3"/>
<polygon points="92.7,87.6 86.5,83.6 87.4,74.9 97.6,73.8 100.5,84.3 92.7,87.6" class="s-mu f-sf" stroke-width="0.3"/>
<polygon points="101.9,85.0 104.4,94.7 102.3,97.1 92.3,96.3 92.7,87.6 100.5,84.3 101.9,85.0" class="s-mu f-sf" stroke-width="0.3"/>
<polygon points="97.6,73.8 101.9,68.5 112.3,73.8 113.0,81.4 101.9,85.0 100.5,84.3 97.6,73.8" class="s-mu f-sf" stroke-width="0.3"/>
<polygon points="112.8,94.8 104.4,94.7 101.9,85.0 113.0,81.4 114.4,82.7 112.8,94.8" class="s-mu f-sf" stroke-width="0.3"/>
<polygon points="41.6,91.7 47.0,98.3 47.5,104.0 38.7,115.4 26.2,115.5 25.3,112.1 24.3,107.8 23.5,103.5 23.0,99.2 22.9,96.2 41.6,91.7" class="s-mu f-sf" stroke-width="0.3"/>
<polygon points="58.5,110.7 58.8,122.2 46.1,124.6 38.7,115.4 47.5,104.0 58.5,110.7" class="s-mu f-sf" stroke-width="0.3"/>
<polygon points="68.6,101.1 67.1,105.9 58.5,110.7 47.5,104.0 47.0,98.3 62.9,92.8 68.6,101.1" class="s-mu f-sf" stroke-width="0.3"/>
<polygon points="70.9,121.9 60.9,123.8 58.8,122.2 58.5,110.7 67.1,105.9 74.8,115.3 70.9,121.9" class="s-mu f-sf" stroke-width="0.3"/>
<polygon points="83.0,108.4 77.5,114.7 74.8,115.3 67.1,105.9 68.6,101.1 76.5,99.2 83.0,107.0 83.0,108.4" class="s-mu f-sf" stroke-width="0.3"/>
<polygon points="83.5,128.6 77.0,129.7 70.9,121.9 74.8,115.3 77.5,114.7 85.7,121.7 83.5,128.6" class="s-mu f-sf" stroke-width="0.3"/>
<polygon points="83.0,107.0 76.5,99.2 79.9,94.0 91.3,97.3 90.9,100.7 83.0,107.0" class="s-mu f-sf" stroke-width="0.3"/>
<polygon points="90.7,119.3 85.7,121.7 77.5,114.7 83.0,108.4 90.3,112.8 90.7,119.3" class="s-mu f-sf" stroke-width="0.3"/>
<polygon points="90.3,112.8 83.0,108.4 83.0,107.0 90.9,100.7 96.4,108.2 90.3,112.8" class="s-mu f-sf" stroke-width="0.3"/>
<polygon points="95.3,121.2 90.7,119.3 90.3,112.8 96.4,108.2 98.9,108.5 101.4,116.1 95.3,121.2" class="s-mu f-sf" stroke-width="0.3"/>
<polygon points="90.9,100.7 91.3,97.3 92.3,96.3 102.3,97.1 103.2,105.0 98.9,108.5 96.4,108.2 90.9,100.7" class="s-mu f-sf" stroke-width="0.3"/>
<polygon points="106.9,117.8 107.8,126.0 104.4,128.5 97.1,126.4 95.3,121.2 101.4,116.1 106.9,117.8" class="s-mu f-sf" stroke-width="0.3"/>
<polygon points="98.9,108.5 103.2,105.0 110.0,107.0 110.6,114.9 106.9,117.8 101.4,116.1 98.9,108.5" class="s-mu f-sf" stroke-width="0.3"/>
<polygon points="114.3,103.9 110.0,107.0 103.2,105.0 102.3,97.1 104.4,94.7 112.8,94.8 113.9,96.0 114.3,103.9" class="s-mu f-sf" stroke-width="0.3"/>
<polygon points="38.7,115.4 46.1,124.6 42.6,138.5 29.3,140.9 29.3,137.7 29.1,133.4 28.8,129.1 28.2,124.9 27.4,120.6 26.4,116.3 26.2,115.5 38.7,115.4" class="s-mu f-sf" stroke-width="0.3"/>
<polygon points="62.1,137.4 48.6,142.6 42.6,138.5 46.1,124.6 58.8,122.2 60.9,123.8 62.1,137.4" class="s-mu f-sf" stroke-width="0.3"/>
<polygon points="72.0,140.2 68.8,141.0 62.1,137.4 60.9,123.8 70.9,121.9 77.0,129.7 72.0,140.2" class="s-mu f-sf" stroke-width="0.3"/>
<polygon points="89.3,134.0 82.9,145.3 72.0,140.2 77.0,129.7 83.5,128.6 89.3,134.0" class="s-mu f-sf" stroke-width="0.3"/>
<polygon points="97.1,126.4 91.2,133.9 89.3,134.0 83.5,128.6 85.7,121.7 90.7,119.3 95.3,121.2 97.1,126.4" class="s-mu f-sf" stroke-width="0.3"/>
<polygon points="104.2,138.6 99.0,140.0 91.2,133.9 97.1,126.4 104.4,128.5 104.2,138.6" class="s-mu f-sf" stroke-width="0.3"/>
<polygon points="143.8,61.0 129.4,68.6 123.0,64.9 120.7,59.2 125.8,45.5 128.7,45.9 133.0,46.4 137.4,46.9 141.8,47.2 143.9,47.2 143.8,61.0" class="s-mu f-sf" stroke-width="0.3"/>
<polygon points="168.4,66.1 155.5,72.2 143.8,61.0 143.9,47.2 146.2,47.2 150.6,47.0 155.0,46.4 159.4,45.6 163.8,44.6 168.1,43.6 170.5,43.1 168.4,66.1" class="s-mu f-sf" stroke-width="0.3"/>
<polygon points="168.4,66.1 170.5,43.1 172.5,42.7 176.9,42.0 181.3,41.6 185.7,41.4 190.1,41.5 193.0,41.6 198.5,67.7 187.3,78.7 168.4,66.1" class="s-mu f-sf" stroke-width="0.3"/>
<polygon points="220.1,70.4 198.5,67.7 193.0,41.6 194.5,41.7 198.9,42.0 203.3,42.2 207.6,42.3 212.0,42.1 216.4,41.8 220.8,41.4 225.2,41.3 229.6,41.6 230.2,41.7 220.1,70.4" class="s-mu f-sf" stroke-width="0.3"/>
<polygon points="126.3,93.9 126.2,94.2 113.9,96.0 112.8,94.8 114.4,82.7 122.7,83.8 126.3,93.9" class="s-mu f-sf" stroke-width="0.3"/>
<polygon points="114.4,82.7 113.0,81.4 112.3,73.8 123.0,64.9 129.4,68.6 130.6,76.0 122.7,83.8 114.4,82.7" class="s-mu f-sf" stroke-width="0.3"/>
<polygon points="130.6,76.0 139.1,82.8 136.9,91.3 126.3,93.9 122.7,83.8 130.6,76.0" class="s-mu f-sf" stroke-width="0.3"/>
<polygon points="136.9,91.3 143.5,100.2 133.9,106.7 126.8,101.7 126.2,94.2 126.3,93.9 136.9,91.3" class="s-mu f-sf" stroke-width="0.3"/>
<polygon points="130.6,76.0 129.4,68.6 143.8,61.0 155.5,72.2 153.6,78.5 139.1,82.8 130.6,76.0" class="s-mu f-sf" stroke-width="0.3"/>
<polygon points="139.1,82.8 153.6,78.5 157.3,87.9 148.3,101.2 143.5,100.2 136.9,91.3 139.1,82.8" class="s-mu f-sf" stroke-width="0.3"/>
<polygon points="153.6,78.5 155.5,72.2 168.4,66.1 187.3,78.7 186.6,88.2 174.4,95.1 157.3,87.9 153.6,78.5" class="s-mu f-sf" stroke-width="0.3"/>
<polygon points="198.5,67.7 220.1,70.4 226.2,79.8 217.6,101.2 200.6,102.2 186.6,88.2 187.3,78.7 198.5,67.7" class="s-mu f-sf" stroke-width="0.3"/>
<polygon points="114.6,127.8 107.8,126.0 106.9,117.8 110.6,114.9 119.1,117.2 119.9,122.1 114.6,127.8" class="s-mu f-sf" stroke-width="0.3"/>
<polygon points="110.6,114.9 110.0,107.0 114.3,103.9 120.4,106.5 121.7,113.7 119.1,117.2 110.6,114.9" class="s-mu f-sf" stroke-width="0.3"/>
<polygon points="126.2,94.2 126.8,101.7 120.4,106.5 114.3,103.9 113.9,96.0 126.2,94.2" class="s-mu f-sf" stroke-width="0.3"/>
<polygon points="119.1,117.2 121.7,113.7 133.2,113.7 135.1,116.9 129.3,126.4 119.9,122.1 119.1,117.2" class="s-mu f-sf" stroke-width="0.3"/>
<polygon points="121.7,113.7 120.4,106.5 126.8,101.7 133.9,106.7 133.2,113.7 121.7,113.7" class="s-mu f-sf" stroke-width="0.3"/>
<polygon points="135.1,116.9 147.5,119.6 148.6,122.3 144.7,132.6 131.6,133.2 130.7,132.5 129.3,126.4 135.1,116.9" class="s-mu f-sf" stroke-width="0.3"/>
<polygon points="135.1,116.9 133.2,113.7 133.9,106.7 143.5,100.2 148.3,101.2 151.9,107.9 147.5,119.6 135.1,116.9" class="s-mu f-sf" stroke-width="0.3"/>
<polygon points="151.9,107.9 169.5,109.0 174.5,122.7 167.4,127.1 148.6,122.3 147.5,119.6 151.9,107.9" class="s-mu f-sf" stroke-width="0.3"/>
<polygon points="157.3,87.9 174.4,95.1 169.5,109.0 151.9,107.9 148.3,101.2 157.3,87.9" class="s-mu f-sf" stroke-width="0.3"/>
<polygon points="186.6,88.2 200.6,102.2 189.9,126.8 188.5,127.2 174.5,122.7 169.5,109.0 174.4,95.1 186.6,88.2" class="s-mu f-sf" stroke-width="0.3"/>
<polygon points="225.6,111.6 218.1,137.1 215.2,138.8 189.9,126.8 200.6,102.2 217.6,101.2 225.6,111.6" class="s-mu f-sf" stroke-width="0.3"/>
<polygon points="117.5,137.1 117.5,137.1 108.8,140.9 104.2,138.6 104.4,128.5 107.8,126.0 114.6,127.8 117.5,137.1" class="s-mu f-sf" stroke-width="0.3"/>
<polygon points="117.5,137.1 124.3,151.2 120.4,155.5 109.4,152.3 108.8,140.9 117.5,137.1" class="s-mu f-sf" stroke-width="0.3"/>
<polygon points="129.3,126.4 130.7,132.5 117.5,137.1 114.6,127.8 119.9,122.1 129.3,126.4" class="s-mu f-sf" stroke-width="0.3"/>
<polygon points="130.7,132.5 131.6,133.2 132.3,149.1 124.3,151.2 117.5,137.1 117.5,137.1 130.7,132.5" class="s-mu f-sf" stroke-width="0.3"/>
<polygon points="148.6,140.3 138.9,151.8 132.3,149.1 131.6,133.2 144.7,132.6 148.6,140.3" class="s-mu f-sf" stroke-width="0.3"/>
<polygon points="164.8,151.7 160.7,158.9 141.9,158.3 138.9,151.8 148.6,140.3 160.6,143.2 164.8,151.7" class="s-mu f-sf" stroke-width="0.3"/>
<polygon points="167.4,127.1 160.6,143.2 148.6,140.3 144.7,132.6 148.6,122.3 167.4,127.1" class="s-mu f-sf" stroke-width="0.3"/>
<polygon points="174.5,122.7 188.5,127.2 181.9,151.3 164.8,151.7 160.6,143.2 167.4,127.1 174.5,122.7" class="s-mu f-sf" stroke-width="0.3"/>
<polygon points="124.3,151.2 132.3,149.1 138.9,151.8 141.9,158.3 136.6,172.6 133.6,173.5 121.2,167.0 120.4,155.5 124.3,151.2" class="s-mu f-sf" stroke-width="0.3"/>
<polygon points="256.1,72.3 248.8,80.5 226.2,79.8 220.1,70.4 230.2,41.7 234.0,42.4 238.4,43.5 242.7,44.8 247.1,45.8 251.3,46.5 256.1,72.3" class="s-mu f-sf" stroke-width="0.3"/>
<polygon points="269.7,73.4 256.1,72.3 251.3,46.5 251.5,46.6 255.9,47.0 260.3,47.2 264.7,47.2 269.1,47.1 273.5,46.9 277.8,46.6 282.2,46.1 286.6,45.4 291.0,44.8 294.0,45.3 269.7,73.4" class="s-mu f-sf" stroke-width="0.3"/>
<polygon points="294.0,45.3 296.3,45.6 294.9,47.5 293.8,49.5 293.1,51.4 292.6,53.3 292.4,55.2 292.5,57.1 293.0,59.1 293.8,61.0 294.7,62.9 295.6,64.8 296.3,66.7 296.8,68.7 296.8,70.6 295.9,72.5 294.2,74.4 292.6,76.3 292.4,78.2 294.2,80.2 294.7,80.4 283.1,87.4 269.7,73.4 294.0,45.3" class="s-mu f-sf" stroke-width="0.3"/>
<polygon points="248.8,80.5 253.8,98.7 243.6,112.5 225.6,111.6 217.6,101.2 226.2,79.8 248.8,80.5" class="s-mu f-sf" stroke-width="0.3"/>
<polygon points="253.8,98.7 248.8,80.5 256.1,72.3 269.7,73.4 283.1,87.4 282.2,93.5 270.6,103.2 253.8,98.7" class="s-mu f-sf" stroke-width="0.3"/>
<polygon points="283.1,87.4 294.7,80.4 298.0,82.1 302.7,84.0 307.2,85.9 310.7,87.8 313.3,89.8 314.7,91.7 314.7,93.6 312.9,95.5 309.7,97.4 306.5,99.4 304.7,101.3 304.6,102.1 295.4,104.9 282.2,93.5 283.1,87.4" class="s-mu f-sf" stroke-width="0.3"/>
<polygon points="273.0,116.0 258.1,130.4 253.1,129.7 243.6,112.5 253.8,98.7 270.6,103.2 273.0,116.0" class="s-mu f-sf" stroke-width="0.3"/>
<polygon points="282.2,93.5 295.4,104.9 293.5,114.9 284.8,121.7 273.0,116.0 270.6,103.2 282.2,93.5" class="s-mu f-sf" stroke-width="0.3"/>
<polygon points="307.5,123.8 307.0,124.3 306.2,126.2 306.1,128.1 306.3,130.1 306.7,132.0 307.5,133.5 307.0,133.8 286.4,132.1 284.8,121.7 293.5,114.9 307.5,123.8" class="s-mu f-sf" stroke-width="0.3"/>
<polygon points="293.5,114.9 295.4,104.9 304.6,102.1 304.6,103.2 305.7,105.1 307.4,107.0 309.4,108.9 311.8,110.9 314.0,112.8 315.3,114.7 315.2,116.6 313.6,118.5 311.3,120.5 308.8,122.4 307.5,123.8 293.5,114.9" class="s-mu f-sf" stroke-width="0.3"/>
<polygon points="218.1,137.1 240.5,142.6 246.4,165.1 226.1,169.0 212.6,149.6 215.2,138.8 218.1,137.1" class="s-mu f-sf" stroke-width="0.3"/>
<polygon points="240.5,142.6 218.1,137.1 225.6,111.6 243.6,112.5 253.1,129.7 240.5,142.6" class="s-mu f-sf" stroke-width="0.3"/>
<polygon points="258.0,164.7 249.2,166.8 246.4,165.1 240.5,142.6 253.1,129.7 258.1,130.4 268.4,141.2 268.9,151.8 258.0,164.7" class="s-mu f-sf" stroke-width="0.3"/>
<polygon points="284.8,121.7 286.4,132.1 285.0,134.5 268.4,141.2 258.1,130.4 273.0,116.0 284.8,121.7" class="s-mu f-sf" stroke-width="0.3"/>
<polygon points="268.4,141.2 285.0,134.5 292.8,154.1 288.3,157.8 268.9,151.8 268.4,141.2" class="s-mu f-sf" stroke-width="0.3"/>
<polygon points="307.0,133.8 298.3,153.4 292.8,154.1 285.0,134.5 286.4,132.1 307.0,133.8" class="s-mu f-sf" stroke-width="0.3"/>
<polygon points="310.7,160.4 298.3,153.4 307.0,133.8 307.5,133.5 307.7,133.9 309.2,135.8 311.1,137.7 313.1,139.6 315.3,141.6 317.9,143.5 321.2,145.4 324.9,147.3 328.2,149.2 328.7,149.6 310.7,160.4" class="s-mu f-sf" stroke-width="0.3"/>
<polygon points="284.6,182.6 258.0,164.7 268.9,151.8 288.3,157.8 285.3,181.8 284.6,182.6" class="s-mu f-sf" stroke-width="0.3"/>
<polygon points="288.3,157.8 292.8,154.1 298.3,153.4 310.7,160.4 310.3,175.9 285.3,181.8 288.3,157.8" class="s-mu f-sf" stroke-width="0.3"/>
<polygon points="328.7,149.6 330.6,151.2 332.1,153.1 332.7,155.0 332.0,156.9 329.8,158.8 326.6,160.7 323.6,162.7 321.7,164.6 320.9,166.5 321.0,168.4 322.4,170.3 325.7,172.3 330.4,174.2 335.1,176.1 338.0,178.0 338.1,179.9 335.4,181.9 331.3,183.8 327.7,185.7 327.5,186.1 322.7,186.2 310.3,175.9 310.7,160.4 328.7,149.6" class="s-mu f-sf" stroke-width="0.3"/>
<polygon points="283.6,188.2 272.0,198.3 249.4,192.5 249.2,166.8 258.0,164.7 284.6,182.6 283.6,188.2" class="s-mu f-sf" stroke-width="0.3"/>
<polygon points="272.0,198.3 283.6,188.2 305.3,207.2 306.7,221.1 304.4,221.5 302.2,221.7 299.9,221.3 297.7,220.4 295.4,219.5 293.2,219.0 290.9,219.2 288.6,219.9 286.4,220.9 284.1,221.6 281.9,222.0 279.6,222.1 277.3,222.2 275.1,222.6 272.8,223.5 272.5,223.7 272.0,198.3" class="s-mu f-sf" stroke-width="0.3"/>
<polygon points="310.3,175.9 322.7,186.2 305.3,207.2 283.6,188.2 284.6,182.6 285.3,181.8 310.3,175.9" class="s-mu f-sf" stroke-width="0.3"/>
<polygon points="305.3,207.2 322.7,186.2 327.5,186.1 326.4,187.6 327.9,189.5 330.8,191.4 333.7,193.4 335.4,195.3 335.9,197.2 335.3,199.1 334.3,201.0 333.9,203.0 335.0,204.9 337.5,206.8 339.7,208.7 340.0,210.6 338.4,212.6 336.1,214.5 338.3,218.0 336.1,218.3 333.8,218.4 331.6,218.2 329.3,217.6 327.0,216.8 324.8,215.6 322.5,214.5 320.3,214.0 318.0,214.4 315.7,215.9 313.5,217.8 311.2,219.4 309.0,220.4 306.7,221.1 306.7,221.1 305.3,207.2" class="s-mu f-sf" stroke-width="0.3"/>
<polygon points="242.2,206.8 244.1,196.9 249.4,192.5 272.0,198.3 272.5,223.7 270.6,224.8 268.3,225.8 266.0,225.9 263.8,225.0 261.5,223.9 259.3,223.3 257.0,223.8 254.8,225.2 253.3,226.3 242.2,206.8" class="s-mu f-sf" stroke-width="0.3"/>
<polygon points="52.7,161.3 49.8,164.9 27.3,163.7 27.4,163.3 28.0,159.1 28.6,154.8 29.0,150.5 29.2,146.2 29.3,142.0 29.3,140.9 42.6,138.5 48.6,142.6 52.7,161.3" class="s-mu f-sf" stroke-width="0.3"/>
<polygon points="52.7,161.3 48.6,142.6 62.1,137.4 68.8,141.0 65.4,158.7 52.7,161.3" class="s-mu f-sf" stroke-width="0.3"/>
<polygon points="82.9,145.3 84.3,148.0 76.3,163.8 65.4,158.7 68.8,141.0 72.0,140.2 82.9,145.3" class="s-mu f-sf" stroke-width="0.3"/>
<polygon points="94.5,150.4 84.3,148.0 82.9,145.3 89.3,134.0 91.2,133.9 99.0,140.0 94.5,150.4" class="s-mu f-sf" stroke-width="0.3"/>
<polygon points="108.8,140.9 109.4,152.3 99.8,157.7 94.5,150.4 99.0,140.0 104.2,138.6 108.8,140.9" class="s-mu f-sf" stroke-width="0.3"/>
<polygon points="49.8,164.9 54.8,186.5 27.2,195.4 27.1,193.2 26.9,189.0 26.5,184.7 26.3,180.4 26.2,176.1 26.3,171.9 26.7,167.6 27.3,163.7 49.8,164.9" class="s-mu f-sf" stroke-width="0.3"/>
<polygon points="62.4,190.6 54.8,186.5 49.8,164.9 52.7,161.3 65.4,158.7 76.3,163.8 80.7,171.0 80.6,174.1 62.4,190.6" class="s-mu f-sf" stroke-width="0.3"/>
<polygon points="76.3,163.8 84.3,148.0 94.5,150.4 99.8,157.7 99.1,161.7 80.7,171.0 76.3,163.8" class="s-mu f-sf" stroke-width="0.3"/>
<polygon points="80.7,171.0 99.1,161.7 109.1,173.4 106.1,186.2 98.4,189.8 80.6,174.1 80.7,171.0" class="s-mu f-sf" stroke-width="0.3"/>
<polygon points="99.8,157.7 109.4,152.3 120.4,155.5 121.2,167.0 109.1,173.4 99.1,161.7 99.8,157.7" class="s-mu f-sf" stroke-width="0.3"/>
<polygon points="109.1,173.4 121.2,167.0 133.6,173.5 124.0,194.5 106.1,186.2 109.1,173.4" class="s-mu f-sf" stroke-width="0.3"/>
<polygon points="54.8,186.5 62.4,190.6 66.4,200.8 60.6,217.7 49.0,221.3 26.6,212.3 26.8,210.3 27.0,206.0 27.2,201.8 27.2,197.5 27.2,195.4 54.8,186.5" class="s-mu f-sf" stroke-width="0.3"/>
<polygon points="98.4,189.8 92.8,203.1 66.4,200.8 62.4,190.6 80.6,174.1 98.4,189.8" class="s-mu f-sf" stroke-width="0.3"/>
<polygon points="106.1,186.2 124.0,194.5 124.3,195.1 118.9,214.4 98.2,216.2 92.8,203.1 98.4,189.8 106.1,186.2" class="s-mu f-sf" stroke-width="0.3"/>
<polygon points="49.0,221.3 44.1,251.9 42.4,251.8 40.2,252.2 37.9,252.6 35.6,253.2 33.4,253.9 31.1,254.5 28.9,254.6 26.6,254.2 25.7,248.8 25.3,244.5 25.0,240.2 24.9,235.9 25.0,231.7 25.2,227.4 25.6,223.1 26.0,218.9 26.4,214.6 26.6,212.3 49.0,221.3" class="s-mu f-sf" stroke-width="0.3"/>
<polygon points="92.8,203.1 98.2,216.2 95.9,221.6 72.7,229.1 60.6,217.7 66.4,200.8 92.8,203.1" class="s-mu f-sf" stroke-width="0.3"/>
<polygon points="118.9,214.4 123.6,219.3 122.4,242.5 121.5,242.5 119.2,241.9 117.0,240.9 114.7,240.0 112.4,239.9 110.2,240.5 107.9,241.5 105.7,242.5 103.5,243.5 95.9,221.6 98.2,216.2 118.9,214.4" class="s-mu f-sf" stroke-width="0.3"/>
<polygon points="49.0,221.3 60.6,217.7 72.7,229.1 72.7,247.8 71.8,248.1 69.5,248.9 67.3,249.7 65.0,250.1 62.8,250.2 60.5,250.3 58.2,250.7 56.0,251.5 53.7,252.5 51.5,253.1 49.2,253.0 46.9,252.4 44.7,251.9 44.1,251.9 49.0,221.3" class="s-mu f-sf" stroke-width="0.3"/>
<polygon points="103.5,243.5 103.4,243.5 101.2,244.5 98.9,245.5 96.6,246.5 94.4,247.5 92.1,248.5 89.9,249.4 87.6,249.6 85.3,249.0 83.1,248.0 80.8,247.3 78.6,247.1 76.3,247.2 74.0,247.5 72.7,247.8 72.7,229.1 95.9,221.6 103.5,243.5" class="s-mu f-sf" stroke-width="0.3"/>
<polygon points="189.9,126.8 215.2,138.8 212.6,149.6 199.2,159.3 186.0,156.6 181.9,151.3 188.5,127.2 189.9,126.8" class="s-mu f-sf" stroke-width="0.3"/>
<polygon points="147.7,178.9 136.6,172.6 141.9,158.3 160.7,158.9 161.6,165.6 147.7,178.9" class="s-mu f-sf" stroke-width="0.3"/>
<polygon points="148.4,180.6 147.7,178.9 161.6,165.6 171.1,174.7 162.7,185.3 148.4,180.6" class="s-mu f-sf" stroke-width="0.3"/>
<polygon points="186.0,156.6 180.2,171.7 172.2,174.8 171.1,174.7 161.6,165.6 160.7,158.9 164.8,151.7 181.9,151.3 186.0,156.6" class="s-mu f-sf" stroke-width="0.3"/>
<polygon points="177.8,189.4 172.2,174.8 180.2,171.7 188.3,178.5 183.4,189.7 177.8,189.4" class="s-mu f-sf" stroke-width="0.3"/>
<polygon points="196.3,178.6 188.3,178.5 180.2,171.7 186.0,156.6 199.2,159.3 201.6,172.6 196.3,178.6" class="s-mu f-sf" stroke-width="0.3"/>
<polygon points="201.6,172.6 199.2,159.3 212.6,149.6 226.1,169.0 219.8,178.8 201.6,172.6" class="s-mu f-sf" stroke-width="0.3"/>
<polygon points="219.8,178.8 226.1,169.0 246.4,165.1 249.2,166.8 249.4,192.5 244.1,196.9 224.7,190.5 220.0,182.2 219.8,178.8" class="s-mu f-sf" stroke-width="0.3"/>
<polygon points="143.4,210.9 139.9,218.7 123.6,219.3 118.9,214.4 124.3,195.1 139.8,198.7 143.4,210.9" class="s-mu f-sf" stroke-width="0.3"/>
<polygon points="139.8,198.7 124.3,195.1 124.0,194.5 133.6,173.5 136.6,172.6 147.7,178.9 148.4,180.6 146.1,193.9 139.8,198.7" class="s-mu f-sf" stroke-width="0.3"/>
<polygon points="155.7,209.6 143.4,210.9 139.8,198.7 146.1,193.9 156.0,197.8 158.2,203.8 155.7,209.6" class="s-mu f-sf" stroke-width="0.3"/>
<polygon points="146.1,193.9 148.4,180.6 162.7,185.3 164.0,190.3 156.0,197.8 146.1,193.9" class="s-mu f-sf" stroke-width="0.3"/>
<polygon points="158.2,203.8 156.0,197.8 164.0,190.3 167.9,192.6 167.8,203.8 158.2,203.8" class="s-mu f-sf" stroke-width="0.3"/>
<polygon points="164.0,190.3 162.7,185.3 171.1,174.7 172.2,174.8 177.8,189.4 174.5,192.2 167.9,192.6 164.0,190.3" class="s-mu f-sf" stroke-width="0.3"/>
<polygon points="168.4,204.3 167.8,203.8 167.9,192.6 174.5,192.2 176.7,201.0 168.4,204.3" class="s-mu f-sf" stroke-width="0.3"/>
<polygon points="169.7,208.7 168.4,204.3 176.7,201.0 182.0,203.7 183.3,205.7 182.5,205.1 180.2,204.7 178.0,206.3 175.7,209.6 174.5,211.8 169.7,208.7" class="s-mu f-sf" stroke-width="0.3"/>
<polygon points="176.7,201.0 174.5,192.2 177.8,189.4 183.4,189.7 184.6,191.1 182.0,203.7 176.7,201.0" class="s-mu f-sf" stroke-width="0.3"/>
<polygon points="183.5,205.9 183.3,205.7 182.0,203.7 184.6,191.1 191.5,193.4 192.8,198.8 183.5,205.9" class="s-mu f-sf" stroke-width="0.3"/>
<polygon points="184.6,191.1 183.4,189.7 188.3,178.5 196.3,178.6 198.7,187.6 191.5,193.4 184.6,191.1" class="s-mu f-sf" stroke-width="0.3"/>
<polygon points="192.8,198.8 199.6,203.3 199.2,205.8 188.5,211.1 187.0,209.4 184.7,206.8 183.5,205.9 192.8,198.8" class="s-mu f-sf" stroke-width="0.3"/>
<polygon points="191.5,193.4 198.7,187.6 204.8,191.1 205.3,199.0 199.6,203.3 192.8,198.8 191.5,193.4" class="s-mu f-sf" stroke-width="0.3"/>
<polygon points="198.7,187.6 196.3,178.6 201.6,172.6 219.8,178.8 220.0,182.2 204.8,191.1 198.7,187.6" class="s-mu f-sf" stroke-width="0.3"/>
<polygon points="205.3,199.0 216.9,204.4 217.7,208.8 202.9,213.5 199.2,205.8 199.6,203.3 205.3,199.0" class="s-mu f-sf" stroke-width="0.3"/>
<polygon points="220.0,182.2 224.7,190.5 216.9,204.4 205.3,199.0 204.8,191.1 220.0,182.2" class="s-mu f-sf" stroke-width="0.3"/>
<polygon points="224.7,190.5 244.1,196.9 242.2,206.8 225.5,215.4 221.2,213.7 217.7,208.8 216.9,204.4 224.7,190.5" class="s-mu f-sf" stroke-width="0.3"/>
<polygon points="123.6,219.3 139.9,218.7 142.6,222.5 143.4,234.7 141.8,235.8 139.6,237.9 137.3,240.1 135.0,241.7 132.8,242.4 130.5,242.3 128.3,242.1 126.0,242.2 123.7,242.5 122.4,242.5 123.6,219.3" class="s-mu f-sf" stroke-width="0.3"/>
<polygon points="159.8,215.8 156.1,222.5 142.6,222.5 139.9,218.7 143.4,210.9 155.7,209.6 159.8,215.8" class="s-mu f-sf" stroke-width="0.3"/>
<polygon points="142.6,222.5 156.1,222.5 160.8,232.0 159.9,232.7 157.6,233.4 155.4,233.6 153.1,233.3 150.8,233.1 148.6,233.1 146.3,233.5 144.1,234.3 143.4,234.7 142.6,222.5" class="s-mu f-sf" stroke-width="0.3"/>
<polygon points="156.1,222.5 159.8,215.8 162.5,215.9 169.5,221.1 168.9,222.1 166.7,225.7 164.4,228.8 162.1,231.1 160.8,232.0 156.1,222.5" class="s-mu f-sf" stroke-width="0.3"/>
<polygon points="169.7,208.7 162.5,215.9 159.8,215.8 155.7,209.6 158.2,203.8 167.8,203.8 168.4,204.3 169.7,208.7" class="s-mu f-sf" stroke-width="0.3"/>
<polygon points="162.5,215.9 169.7,208.7 174.5,211.8 173.4,213.7 171.2,218.0 169.5,221.1 162.5,215.9" class="s-mu f-sf" stroke-width="0.3"/>
<polygon points="199.2,205.8 202.9,213.5 201.2,218.7 200.5,218.3 198.3,217.9 196.0,217.5 193.8,216.4 191.5,214.5 189.2,212.0 188.5,211.1 199.2,205.8" class="s-mu f-sf" stroke-width="0.3"/>
<polygon points="202.9,213.5 217.7,208.8 221.2,213.7 208.3,227.2 207.3,225.8 205.1,222.3 202.8,219.7 201.2,218.7 202.9,213.5" class="s-mu f-sf" stroke-width="0.3"/>
<polygon points="221.2,213.7 225.5,215.4 229.9,231.4 227.6,233.4 225.4,235.0 223.1,235.4 220.9,234.5 218.6,233.3 216.4,232.6 214.1,232.2 211.8,231.3 209.6,229.1 208.3,227.2 221.2,213.7" class="s-mu f-sf" stroke-width="0.3"/>
<polygon points="225.5,215.4 242.2,206.8 253.3,226.3 252.5,226.9 250.2,228.2 248.0,229.0 245.7,229.3 243.5,229.4 241.2,229.4 238.9,229.3 236.7,229.2 234.4,229.3 232.2,229.9 229.9,231.3 229.9,231.4 225.5,215.4" class="s-mu f-sf" stroke-width="0.3"/>
<line x1="32.1" y1="51.3" x2="54.4" y2="51.0" class="s-fg" stroke-width="1"/>
<line x1="32.1" y1="51.3" x2="31.2" y2="83.0" class="s-fg" stroke-width="1"/>
<line x1="43.6" y1="70.6" x2="31.2" y2="83.0" class="s-fg" stroke-width="1"/>
<line x1="54.4" y1="51.0" x2="77.1" y2="48.0" class="s-fg" stroke-width="1"/>
<line x1="74.8" y1="62.4" x2="96.2" y2="50.7" class="s-fg" stroke-width="1"/>
<line x1="77.1" y1="48.0" x2="96.2" y2="50.7" class="s-fg" stroke-width="1"/>
<line x1="92.0" y1="66.7" x2="79.4" y2="78.7" class="s-fg" stroke-width="1"/>
<line x1="96.2" y1="50.7" x2="111.3" y2="64.5" class="s-fg" stroke-width="1"/>
<line x1="96.2" y1="50.7" x2="114.2" y2="50.4" class="s-fg" stroke-width="1"/>
<line x1="111.3" y1="64.5" x2="121.4" y2="75.0" class="s-bd" stroke-width="3.2"/>
<line x1="114.2" y1="50.4" x2="132.6" y2="56.3" class="s-fg" stroke-width="1"/>
<line x1="31.2" y1="83.0" x2="34.8" y2="103.8" class="s-fg" stroke-width="1"/>
<line x1="52.8" y1="88.0" x2="63.1" y2="73.0" class="s-fg" stroke-width="1"/>
<line x1="52.8" y1="88.0" x2="34.8" y2="103.8" class="s-fg" stroke-width="1"/>
<line x1="71.4" y1="91.7" x2="79.4" y2="78.7" class="s-fg" stroke-width="1"/>
<line x1="71.4" y1="91.7" x2="86.5" y2="90.6" class="s-fg" stroke-width="1"/>
<line x1="86.5" y1="90.6" x2="93.2" y2="80.5" class="s-fg" stroke-width="1"/>
<line x1="93.2" y1="80.5" x2="98.2" y2="91.4" class="s-fg" stroke-width="1"/>
<line x1="93.2" y1="80.5" x2="105.1" y2="77.0" class="s-fg" stroke-width="1"/>
<line x1="98.2" y1="91.4" x2="97.4" y2="101.7" class="s-fg" stroke-width="1"/>
<line x1="108.6" y1="88.4" x2="108.4" y2="100.4" class="s-fg" stroke-width="1"/>
<line x1="34.8" y1="103.8" x2="35.9" y2="127.4" class="s-fg" stroke-width="1"/>
<line x1="49.7" y1="115.2" x2="58.1" y2="101.7" class="s-fg" stroke-width="1"/>
<line x1="49.7" y1="115.2" x2="52.7" y2="132.2" class="s-fg" stroke-width="1"/>
<line x1="65.6" y1="115.5" x2="75.1" y2="106.8" class="s-fg" stroke-width="1"/>
<line x1="75.1" y1="106.8" x2="78.4" y2="122.5" class="s-fg" stroke-width="1"/>
<line x1="78.4" y1="122.5" x2="84.9" y2="115.2" class="s-fg" stroke-width="1"/>
<line x1="78.4" y1="122.5" x2="90.3" y2="126.4" class="s-fg" stroke-width="1"/>
<line x1="83.8" y1="99.8" x2="97.4" y2="101.7" class="s-fg" stroke-width="1"/>
<line x1="89.8" y1="107.2" x2="97.4" y2="101.7" class="s-fg" stroke-width="1"/>
<line x1="95.6" y1="114.8" x2="105.1" y2="111.3" class="s-fg" stroke-width="1"/>
<line x1="97.4" y1="101.7" x2="105.1" y2="111.3" class="s-fg" stroke-width="1"/>
<line x1="102.1" y1="122.4" x2="105.1" y2="111.3" class="s-fg" stroke-width="1"/>
<line x1="102.1" y1="122.4" x2="90.3" y2="126.4" class="s-fg" stroke-width="1"/>
<line x1="102.1" y1="122.4" x2="113.1" y2="121.2" class="s-fg" stroke-width="1"/>
<line x1="102.1" y1="122.4" x2="110.1" y2="133.5" class="s-fg" stroke-width="1"/>
<line x1="105.1" y1="111.3" x2="115.7" y2="110.7" class="s-fg" stroke-width="1"/>
<line x1="108.4" y1="100.4" x2="115.7" y2="110.7" class="s-fg" stroke-width="1"/>
<line x1="52.7" y1="132.2" x2="58.9" y2="149.0" class="s-fg" stroke-width="1"/>
<line x1="68.3" y1="131.1" x2="74.2" y2="151.5" class="s-fg" stroke-width="1"/>
<line x1="80.8" y1="136.5" x2="90.3" y2="126.4" class="s-fg" stroke-width="1"/>
<line x1="80.8" y1="136.5" x2="91.0" y2="142.6" class="s-fg" stroke-width="1"/>
<line x1="90.3" y1="126.4" x2="99.0" y2="133.2" class="s-fg" stroke-width="1"/>
<line x1="157.4" y1="56.8" x2="170.4" y2="80.9" class="s-fg" stroke-width="1"/>
<line x1="183.3" y1="58.3" x2="210.9" y2="54.3" class="s-fg" stroke-width="1"/>
<line x1="210.9" y1="54.3" x2="206.3" y2="84.6" class="s-fg" stroke-width="1"/>
<line x1="210.9" y1="54.3" x2="238.6" y2="62.9" class="s-fg" stroke-width="1"/>
<line x1="118.9" y1="89.7" x2="130.9" y2="85.5" class="s-fg" stroke-width="1"/>
<line x1="118.9" y1="89.7" x2="134.0" y2="98.6" class="s-fg" stroke-width="1"/>
<line x1="118.9" y1="89.7" x2="120.3" y2="99.9" class="s-fg" stroke-width="1"/>
<line x1="121.4" y1="75.0" x2="130.9" y2="85.5" class="s-fg" stroke-width="1"/>
<line x1="130.9" y1="85.5" x2="147.0" y2="89.3" class="s-fg" stroke-width="1"/>
<line x1="134.0" y1="98.6" x2="127.2" y2="108.7" class="s-fg" stroke-width="1"/>
<line x1="142.2" y1="72.5" x2="147.0" y2="89.3" class="s-fg" stroke-width="1"/>
<line x1="147.0" y1="89.3" x2="142.6" y2="110.1" class="s-fg" stroke-width="1"/>
<line x1="170.4" y1="80.9" x2="161.3" y2="99.6" class="s-fg" stroke-width="1"/>
<line x1="206.3" y1="84.6" x2="236.0" y2="96.0" class="s-fg" stroke-width="1"/>
<line x1="113.1" y1="121.2" x2="122.2" y2="129.6" class="s-fg" stroke-width="1"/>
<line x1="115.7" y1="110.7" x2="126.9" y2="118.9" class="s-fg" stroke-width="1"/>
<line x1="126.9" y1="118.9" x2="127.2" y2="108.7" class="s-fg" stroke-width="1"/>
<line x1="126.9" y1="118.9" x2="138.8" y2="125.6" class="s-fg" stroke-width="1"/>
<line x1="161.0" y1="117.2" x2="161.3" y2="99.6" class="s-fg" stroke-width="1"/>
<line x1="161.0" y1="117.2" x2="155.4" y2="132.5" class="s-fg" stroke-width="1"/>
<line x1="161.0" y1="117.2" x2="174.6" y2="138.0" class="s-fg" stroke-width="1"/>
<line x1="184.4" y1="107.9" x2="209.0" y2="118.8" class="s-fg" stroke-width="1"/>
<line x1="209.0" y1="118.8" x2="236.0" y2="96.0" class="s-fg" stroke-width="1"/>
<line x1="209.0" y1="118.8" x2="235.2" y2="127.0" class="s-fg" stroke-width="1"/>
<line x1="110.1" y1="133.5" x2="115.8" y2="146.9" class="s-fg" stroke-width="1"/>
<line x1="126.3" y1="141.7" x2="138.9" y2="141.0" class="s-fg" stroke-width="1"/>
<line x1="138.9" y1="141.0" x2="131.0" y2="160.6" class="s-fg" stroke-width="1"/>
<line x1="152.2" y1="150.7" x2="155.4" y2="132.5" class="s-fg" stroke-width="1"/>
<line x1="152.2" y1="150.7" x2="131.0" y2="160.6" class="s-fg" stroke-width="1"/>
<line x1="152.2" y1="150.7" x2="173.1" y2="161.6" class="s-fg" stroke-width="1"/>
<line x1="174.6" y1="138.0" x2="197.4" y2="144.2" class="s-fg" stroke-width="1"/>
<line x1="131.0" y1="160.6" x2="110.9" y2="162.1" class="s-bd" stroke-width="3.2"/>
<line x1="131.0" y1="160.6" x2="119.5" y2="180.0" class="s-fg" stroke-width="1"/>
<line x1="131.0" y1="160.6" x2="137.2" y2="186.6" class="s-fg" stroke-width="1"/>
<line x1="238.6" y1="62.9" x2="268.9" y2="57.5" class="s-fg" stroke-width="1"/>
<line x1="268.9" y1="57.5" x2="265.3" y2="87.4" class="s-fg" stroke-width="1"/>
<line x1="285.3" y1="69.6" x2="265.3" y2="87.4" class="s-fg" stroke-width="1"/>
<line x1="265.3" y1="87.4" x2="297.7" y2="92.5" class="s-fg" stroke-width="1"/>
<line x1="297.7" y1="92.5" x2="303.9" y2="113.0" class="s-fg" stroke-width="1"/>
<line x1="258.6" y1="113.7" x2="235.2" y2="127.0" class="s-fg" stroke-width="1"/>
<line x1="282.9" y1="108.1" x2="273.4" y2="128.9" class="s-fg" stroke-width="1"/>
<line x1="295.8" y1="125.6" x2="303.9" y2="113.0" class="s-fg" stroke-width="1"/>
<line x1="295.8" y1="125.6" x2="295.5" y2="141.2" class="s-fg" stroke-width="1"/>
<line x1="229.3" y1="153.0" x2="197.4" y2="144.2" class="s-fg" stroke-width="1"/>
<line x1="229.3" y1="153.0" x2="236.6" y2="180.6" class="s-fg" stroke-width="1"/>
<line x1="254.8" y1="148.2" x2="273.4" y2="128.9" class="s-fg" stroke-width="1"/>
<line x1="254.8" y1="148.2" x2="236.6" y2="180.6" class="s-fg" stroke-width="1"/>
<line x1="280.3" y1="146.8" x2="295.5" y2="141.2" class="s-fg" stroke-width="1"/>
<line x1="280.3" y1="146.8" x2="275.5" y2="165.4" class="s-fg" stroke-width="1"/>
<line x1="295.5" y1="141.2" x2="311.4" y2="148.7" class="s-fg" stroke-width="1"/>
<line x1="275.5" y1="165.4" x2="264.1" y2="182.5" class="s-fg" stroke-width="1"/>
<line x1="297.9" y1="167.5" x2="322.1" y2="169.9" class="s-fg" stroke-width="1"/>
<line x1="297.9" y1="167.5" x2="303.1" y2="189.3" class="s-fg" stroke-width="1"/>
<line x1="322.1" y1="169.9" x2="322.5" y2="205.0" class="s-fg" stroke-width="1"/>
<line x1="264.1" y1="182.5" x2="287.3" y2="208.2" class="s-fg" stroke-width="1"/>
<line x1="264.1" y1="182.5" x2="236.6" y2="180.6" class="s-fg" stroke-width="1"/>
<line x1="287.3" y1="208.2" x2="322.5" y2="205.0" class="s-fg" stroke-width="1"/>
<line x1="287.3" y1="208.2" x2="258.5" y2="209.2" class="s-fg" stroke-width="1"/>
<line x1="39.7" y1="152.7" x2="58.9" y2="149.0" class="s-fg" stroke-width="1"/>
<line x1="39.7" y1="152.7" x2="38.7" y2="178.2" class="s-fg" stroke-width="1"/>
<line x1="39.7" y1="152.7" x2="64.2" y2="173.0" class="s-fg" stroke-width="1"/>
<line x1="74.2" y1="151.5" x2="91.0" y2="142.6" class="s-fg" stroke-width="1"/>
<line x1="74.2" y1="151.5" x2="87.7" y2="159.1" class="s-fg" stroke-width="1"/>
<line x1="91.0" y1="142.6" x2="102.5" y2="147.8" class="s-fg" stroke-width="1"/>
<line x1="64.2" y1="173.0" x2="46.9" y2="203.9" class="s-fg" stroke-width="1"/>
<line x1="87.7" y1="159.1" x2="110.9" y2="162.1" class="s-fg" stroke-width="1"/>
<line x1="96.4" y1="175.5" x2="119.5" y2="180.0" class="s-fg" stroke-width="1"/>
<line x1="119.5" y1="180.0" x2="108.1" y2="202.0" class="s-fg" stroke-width="1"/>
<line x1="46.9" y1="203.9" x2="35.5" y2="234.1" class="s-fg" stroke-width="1"/>
<line x1="46.9" y1="203.9" x2="79.0" y2="214.0" class="s-fg" stroke-width="1"/>
<line x1="80.6" y1="191.0" x2="108.1" y2="202.0" class="s-fg" stroke-width="1"/>
<line x1="80.6" y1="191.0" x2="79.0" y2="214.0" class="s-fg" stroke-width="1"/>
<line x1="108.1" y1="202.0" x2="131.2" y2="208.3" class="s-fg" stroke-width="1"/>
<line x1="79.0" y1="214.0" x2="87.1" y2="236.7" class="s-fg" stroke-width="1"/>
<line x1="110.8" y1="227.8" x2="87.1" y2="236.7" class="s-fg" stroke-width="1"/>
<line x1="110.8" y1="227.8" x2="132.4" y2="230.3" class="s-fg" stroke-width="1"/>
<line x1="58.7" y1="236.6" x2="87.1" y2="236.7" class="s-fg" stroke-width="1"/>
<line x1="148.9" y1="167.0" x2="173.1" y2="161.6" class="s-fg" stroke-width="1"/>
<line x1="160.0" y1="176.3" x2="154.4" y2="189.3" class="s-fg" stroke-width="1"/>
<line x1="173.1" y1="161.6" x2="191.4" y2="168.1" class="s-fg" stroke-width="1"/>
<line x1="180.3" y1="180.5" x2="170.3" y2="185.3" class="s-fg" stroke-width="1"/>
<line x1="212.1" y1="165.3" x2="236.6" y2="180.6" class="s-fg" stroke-width="1"/>
<line x1="236.6" y1="180.6" x2="229.8" y2="202.9" class="s-fg" stroke-width="1"/>
<line x1="148.9" y1="202.8" x2="154.4" y2="189.3" class="s-fg" stroke-width="1"/>
<line x1="148.9" y1="202.8" x2="149.9" y2="216.5" class="s-fg" stroke-width="1"/>
<line x1="154.4" y1="189.3" x2="162.9" y2="198.1" class="s-fg" stroke-width="1"/>
<line x1="154.4" y1="189.3" x2="170.3" y2="185.3" class="s-fg" stroke-width="1"/>
<line x1="162.9" y1="198.1" x2="171.6" y2="197.9" class="s-fg" stroke-width="1"/>
<line x1="171.6" y1="197.9" x2="179.7" y2="195.5" class="s-fg" stroke-width="1"/>
<line x1="171.6" y1="197.9" x2="162.5" y2="209.0" class="s-fg" stroke-width="1"/>
<line x1="174.6" y1="205.7" x2="162.5" y2="209.0" class="s-fg" stroke-width="1"/>
<line x1="179.7" y1="195.5" x2="187.0" y2="198.1" class="s-fg" stroke-width="1"/>
<line x1="179.7" y1="195.5" x2="191.3" y2="185.8" class="s-fg" stroke-width="1"/>
<line x1="187.0" y1="198.1" x2="191.8" y2="205.0" class="s-fg" stroke-width="1"/>
<line x1="191.8" y1="205.0" x2="198.9" y2="195.4" class="s-fg" stroke-width="1"/>
<line x1="198.9" y1="195.4" x2="207.6" y2="206.3" class="s-fg" stroke-width="1"/>
<line x1="206.8" y1="181.6" x2="214.7" y2="193.5" class="s-fg" stroke-width="1"/>
<line x1="207.6" y1="206.3" x2="214.7" y2="193.5" class="s-fg" stroke-width="1"/>
<line x1="207.6" y1="206.3" x2="196.7" y2="212.5" class="s-fg" stroke-width="1"/>
<line x1="207.6" y1="206.3" x2="210.8" y2="216.8" class="s-fg" stroke-width="1"/>
<line x1="214.7" y1="193.5" x2="229.8" y2="202.9" class="s-bd" stroke-width="3.2"/>
<line x1="229.8" y1="202.9" x2="220.3" y2="225.7" class="s-fg" stroke-width="1"/>
<line x1="229.8" y1="202.9" x2="238.7" y2="220.3" class="s-fg" stroke-width="1"/>
<line x1="149.9" y1="216.5" x2="150.8" y2="228.2" class="s-fg" stroke-width="1"/>
<line x1="149.9" y1="216.5" x2="162.3" y2="223.1" class="s-fg" stroke-width="1"/>
<line x1="162.3" y1="223.1" x2="168.8" y2="214.7" class="s-fg" stroke-width="1"/>
<text x="180.0" y="24.0" class="f-fg" font-size="12" text-anchor="middle" font-weight="600">최소 신장 트리와 자른 가지</text>
<path d="M89.9,249.4 L87.6,249.6 L85.3,249.0 L83.1,248.0 L80.8,247.3 L78.6,247.1 L76.3,247.2 L74.0,247.5 L72.7,247.8 L71.8,248.1 L69.5,248.9 L67.3,249.7 L65.0,250.1 L62.8,250.2 L60.5,250.3 L58.2,250.7 L56.0,251.5 L53.7,252.5 L51.5,253.1 L49.2,253.0 L46.9,252.4 L44.7,251.9 L44.1,251.9 L42.4,251.8 L40.2,252.2 L37.9,252.6 L35.6,253.2 L33.4,253.9 L31.1,254.5 L28.9,254.6 L26.6,254.2 L25.7,248.8 L25.3,244.5 L25.0,240.2 L24.9,235.9 L25.0,231.7 L25.2,227.4 L25.6,223.1 L26.0,218.9 L26.4,214.6 L26.6,212.3 L26.8,210.3 L27.0,206.0 L27.2,201.8 L27.2,197.5 L27.2,195.4 L27.1,193.2 L26.9,189.0 L26.5,184.7 L26.3,180.4 L26.2,176.1 L26.3,171.9 L26.7,167.6 L27.3,163.7 L27.4,163.3 L28.0,159.1 L28.6,154.8 L29.0,150.5 L29.2,146.2 L29.3,142.0 L29.3,140.9 L29.3,137.7 L29.1,133.4 L28.8,129.1 L28.2,124.9 L27.4,120.6 L26.4,116.3 L26.2,115.5 L25.3,112.1 L24.3,107.8 L23.5,103.5 L23.0,99.2 L22.9,96.2 L22.8,95.0 L23.0,90.7 L23.3,86.4 L23.6,82.2 L23.8,77.9 L23.7,73.6 L23.5,69.3 L23.2,67.4 L23.0,65.1 L22.4,60.8 L21.8,56.5 L21.2,52.3 L20.6,48.0 L20.0,43.7 L32.1,36.0 L36.5,37.0 L40.9,38.0 L43.3,38.5 L45.3,39.0 L49.7,39.7 L54.1,40.3 L58.4,40.7 L62.8,40.9 L65.0,41.0 L67.2,41.1 L71.6,41.1 L76.0,41.0 L80.4,40.9 L84.8,40.8 L88.9,40.8 L89.2,40.8 L93.6,40.9 L97.9,41.1 L102.3,41.6 L104.5,41.9 L106.7,42.2 L111.1,43.0 L115.5,43.8 L119.9,44.6 L124.3,45.3 L125.8,45.5 L128.7,45.9 L133.0,46.4 L137.4,46.9 L141.8,47.2 L143.9,47.2 L146.2,47.2 L150.6,47.0 L155.0,46.4 L159.4,45.6 L163.8,44.6 L168.1,43.6 L170.5,43.1 L172.5,42.7 L176.9,42.0 L181.3,41.6 L185.7,41.4 L190.1,41.5 L193.0,41.6 L194.5,41.7 L198.9,42.0 L203.3,42.2 L207.6,42.3 L212.0,42.1 L216.4,41.8 L220.8,41.4 L225.2,41.3 L229.6,41.6 L230.2,41.7 L234.0,42.4 L238.4,43.5 L242.7,44.8 L247.1,45.8 L251.3,46.5 L251.5,46.6 L255.9,47.0 L260.3,47.2 L264.7,47.2 L269.1,47.1 L273.5,46.9 L277.8,46.6 L282.2,46.1 L286.6,45.4 L291.0,44.8 L294.0,45.3 L296.3,45.6 L294.9,47.5 L293.8,49.5 L293.1,51.4 L292.6,53.3 L292.4,55.2 L292.5,57.1 L293.0,59.1 L293.8,61.0 L294.7,62.9 L295.6,64.8 L296.3,66.7 L296.8,68.7 L296.8,70.6 L295.9,72.5 L294.2,74.4 L292.6,76.3 L292.4,78.2 L294.2,80.2 L294.7,80.4 L298.0,82.1 L302.7,84.0 L307.2,85.9 L310.7,87.8 L313.3,89.8 L314.7,91.7 L314.7,93.6 L312.9,95.5 L309.7,97.4 L306.5,99.4 L304.7,101.3 L304.6,102.1 L304.6,103.2 L305.7,105.1 L307.4,107.0 L309.4,108.9 L311.8,110.9 L314.0,112.8 L315.3,114.7 L315.2,116.6 L313.6,118.5 L311.3,120.5 L308.8,122.4 L307.5,123.8 L307.0,124.3 L306.2,126.2 L306.1,128.1 L306.3,130.1 L306.7,132.0 L307.5,133.5 L307.7,133.9 L309.2,135.8 L311.1,137.7 L313.1,139.6 L315.3,141.6 L317.9,143.5 L321.2,145.4 L324.9,147.3 L328.2,149.2 L328.7,149.6 L330.6,151.2 L332.1,153.1 L332.7,155.0 L332.0,156.9 L329.8,158.8 L326.6,160.7 L323.6,162.7 L321.7,164.6 L320.9,166.5 L321.0,168.4 L322.4,170.3 L325.7,172.3 L330.4,174.2 L335.1,176.1 L338.0,178.0 L338.1,179.9 L335.4,181.9 L331.3,183.8 L327.7,185.7 L327.5,186.1 L326.4,187.6 L327.9,189.5 L330.8,191.4 L333.7,193.4 L335.4,195.3 L335.9,197.2 L335.3,199.1 L334.3,201.0 L333.9,203.0 L335.0,204.9 L337.5,206.8 L339.7,208.7 L340.0,210.6 L338.4,212.6 L336.1,214.5 L338.3,218.0 L336.1,218.3 L333.8,218.4 L331.6,218.2 L329.3,217.6 L327.0,216.8 L324.8,215.6 L322.5,214.5 L320.3,214.0 L318.0,214.4 L315.7,215.9 L313.5,217.8 L311.2,219.4 L309.0,220.4 L306.7,221.1 L306.7,221.1 L304.4,221.5 L302.2,221.7 L299.9,221.3 L297.7,220.4 L295.4,219.5 L293.2,219.0 L290.9,219.2 L288.6,219.9 L286.4,220.9 L284.1,221.6 L281.9,222.0 L279.6,222.1 L277.3,222.2 L275.1,222.6 L272.8,223.5 L272.5,223.7 L270.6,224.8 L268.3,225.8 L266.0,225.9 L263.8,225.0 L261.5,223.9 L259.3,223.3 L257.0,223.8 L254.8,225.2 L253.3,226.3 L252.5,226.9 L250.2,228.2 L248.0,229.0 L245.7,229.3 L243.5,229.4 L241.2,229.4 L238.9,229.3 L236.7,229.2 L234.4,229.3 L232.2,229.9 L229.9,231.3 L229.9,231.4 L227.6,233.4 L225.4,235.0 L223.1,235.4 L220.9,234.5 L218.6,233.3 L216.4,232.6 L214.1,232.2 L211.8,231.3 L209.6,229.1 L208.3,227.2 L207.3,225.8 L205.1,222.3 L202.8,219.7 L201.2,218.7 L200.5,218.3 L198.3,217.9 L196.0,217.5 L193.8,216.4 L191.5,214.5 L189.2,212.0 L188.5,211.1 L187.0,209.4 L184.7,206.8 L183.5,205.9 L183.3,205.7 L182.5,205.1 L180.2,204.7 L178.0,206.3 L175.7,209.6 L174.5,211.8 L173.4,213.7 L171.2,218.0 L169.5,221.1 L168.9,222.1 L166.7,225.7 L164.4,228.8 L162.1,231.1 L160.8,232.0 L159.9,232.7 L157.6,233.4 L155.4,233.6 L153.1,233.3 L150.8,233.1 L148.6,233.1 L146.3,233.5 L144.1,234.3 L143.4,234.7 L141.8,235.8 L139.6,237.9 L137.3,240.1 L135.0,241.7 L132.8,242.4 L130.5,242.3 L128.3,242.1 L126.0,242.2 L123.7,242.5 L122.4,242.5 L121.5,242.5 L119.2,241.9 L117.0,240.9 L114.7,240.0 L112.4,239.9 L110.2,240.5 L107.9,241.5 L105.7,242.5 L103.5,243.5 L103.4,243.5 L101.2,244.5 L98.9,245.5 L96.6,246.5 L94.4,247.5 L92.1,248.5 L89.9,249.4 Z" class="s-fg" stroke-width="0.8" fill="none"/>
<polygon points="403.6,58.7 388.7,67.6 383.2,67.4 383.0,65.1 382.4,60.8 381.8,56.5 381.2,52.3 380.6,48.0 380.0,43.7 392.1,36.0 396.5,37.0 400.9,38.0 403.3,38.5 403.6,58.7" class="s-bg" stroke-width="0.3" fill="#CC79A7"/>
<polygon points="413.9,77.3 403.1,84.1 388.7,67.6 403.6,58.7 414.9,64.4 413.9,77.3" class="s-bg" stroke-width="0.3" fill="#CC79A7"/>
<polygon points="426.8,53.9 422.8,61.1 414.9,64.4 403.6,58.7 403.3,38.5 405.3,39.0 409.7,39.7 414.1,40.3 418.4,40.7 422.8,40.9 425.0,41.0 426.8,53.9" class="s-bg" stroke-width="0.3" fill="#CC79A7"/>
<polygon points="442.4,69.9 433.8,72.5 422.8,61.1 426.8,53.9 445.7,57.1 445.9,57.5 442.4,69.9" class="s-bg" stroke-width="0.3" fill="#CC79A7"/>
<polygon points="426.8,53.9 425.0,41.0 427.2,41.1 431.6,41.1 436.0,41.0 440.4,40.9 444.8,40.8 448.9,40.8 445.7,57.1 426.8,53.9" class="s-bg" stroke-width="0.3" fill="#CC79A7"/>
<polygon points="461.9,68.5 457.6,73.8 447.4,74.9 442.4,69.9 445.9,57.5 461.1,61.6 461.9,68.5" class="s-bg" stroke-width="0.3" fill="#E69F00"/>
<polygon points="445.9,57.5 445.7,57.1 448.9,40.8 449.2,40.8 453.6,40.9 457.9,41.1 462.3,41.6 464.5,41.9 465.7,56.6 461.1,61.6 445.9,57.5" class="s-bg" stroke-width="0.3" fill="#CC79A7"/>
<polygon points="465.7,56.6 480.7,59.2 483.0,64.9 472.3,73.8 461.9,68.5 461.1,61.6 465.7,56.6" class="s-bg" stroke-width="0.3" fill="#CC79A7"/>
<polygon points="480.7,59.2 465.7,56.6 464.5,41.9 466.7,42.2 471.1,43.0 475.5,43.8 479.9,44.6 484.3,45.3 485.8,45.5 480.7,59.2" class="s-bg" stroke-width="0.3" fill="#CC79A7"/>
<polygon points="388.7,67.6 403.1,84.1 401.6,91.7 382.9,96.2 382.8,95.0 383.0,90.7 383.3,86.4 383.6,82.2 383.8,77.9 383.7,73.6 383.5,69.3 383.2,67.4 388.7,67.6" class="s-bg" stroke-width="0.3" fill="#CC79A7"/>
<polygon points="422.9,92.8 407.0,98.3 401.6,91.7 403.1,84.1 413.9,77.3 424.8,84.5 422.9,92.8" class="s-bg" stroke-width="0.3" fill="#CC79A7"/>
<polygon points="424.8,84.5 413.9,77.3 414.9,64.4 422.8,61.1 433.8,72.5 430.1,82.2 424.8,84.5" class="s-bg" stroke-width="0.3" fill="#CC79A7"/>
<polygon points="428.6,101.1 422.9,92.8 424.8,84.5 430.1,82.2 439.4,87.8 439.9,94.0 436.5,99.2 428.6,101.1" class="s-bg" stroke-width="0.3" fill="#E69F00"/>
<polygon points="433.8,72.5 442.4,69.9 447.4,74.9 446.5,83.6 439.4,87.8 430.1,82.2 433.8,72.5" class="s-bg" stroke-width="0.3" fill="#E69F00"/>
<polygon points="439.9,94.0 439.4,87.8 446.5,83.6 452.7,87.6 452.3,96.3 451.3,97.3 439.9,94.0" class="s-bg" stroke-width="0.3" fill="#E69F00"/>
<polygon points="452.7,87.6 446.5,83.6 447.4,74.9 457.6,73.8 460.5,84.3 452.7,87.6" class="s-bg" stroke-width="0.3" fill="#E69F00"/>
<polygon points="461.9,85.0 464.4,94.7 462.3,97.1 452.3,96.3 452.7,87.6 460.5,84.3 461.9,85.0" class="s-bg" stroke-width="0.3" fill="#E69F00"/>
<polygon points="457.6,73.8 461.9,68.5 472.3,73.8 473.0,81.4 461.9,85.0 460.5,84.3 457.6,73.8" class="s-bg" stroke-width="0.3" fill="#E69F00"/>
<polygon points="472.8,94.8 464.4,94.7 461.9,85.0 473.0,81.4 474.4,82.7 472.8,94.8" class="s-bg" stroke-width="0.3" fill="#E69F00"/>
<polygon points="401.6,91.7 407.0,98.3 407.5,104.0 398.7,115.4 386.2,115.5 385.3,112.1 384.3,107.8 383.5,103.5 383.0,99.2 382.9,96.2 401.6,91.7" class="s-bg" stroke-width="0.3" fill="#CC79A7"/>
<polygon points="418.5,110.7 418.8,122.2 406.1,124.6 398.7,115.4 407.5,104.0 418.5,110.7" class="s-bg" stroke-width="0.3" fill="#0072B2"/>
<polygon points="428.6,101.1 427.1,105.9 418.5,110.7 407.5,104.0 407.0,98.3 422.9,92.8 428.6,101.1" class="s-bg" stroke-width="0.3" fill="#0072B2"/>
<polygon points="430.9,121.9 420.9,123.8 418.8,122.2 418.5,110.7 427.1,105.9 434.8,115.3 430.9,121.9" class="s-bg" stroke-width="0.3" fill="#E69F00"/>
<polygon points="443.0,108.4 437.5,114.7 434.8,115.3 427.1,105.9 428.6,101.1 436.5,99.2 443.0,107.0 443.0,108.4" class="s-bg" stroke-width="0.3" fill="#E69F00"/>
<polygon points="443.5,128.6 437.0,129.7 430.9,121.9 434.8,115.3 437.5,114.7 445.7,121.7 443.5,128.6" class="s-bg" stroke-width="0.3" fill="#E69F00"/>
<polygon points="443.0,107.0 436.5,99.2 439.9,94.0 451.3,97.3 450.9,100.7 443.0,107.0" class="s-bg" stroke-width="0.3" fill="#E69F00"/>
<polygon points="450.7,119.3 445.7,121.7 437.5,114.7 443.0,108.4 450.3,112.8 450.7,119.3" class="s-bg" stroke-width="0.3" fill="#E69F00"/>
<polygon points="450.3,112.8 443.0,108.4 443.0,107.0 450.9,100.7 456.4,108.2 450.3,112.8" class="s-bg" stroke-width="0.3" fill="#E69F00"/>
<polygon points="455.3,121.2 450.7,119.3 450.3,112.8 456.4,108.2 458.9,108.5 461.4,116.1 455.3,121.2" class="s-bg" stroke-width="0.3" fill="#E69F00"/>
<polygon points="450.9,100.7 451.3,97.3 452.3,96.3 462.3,97.1 463.2,105.0 458.9,108.5 456.4,108.2 450.9,100.7" class="s-bg" stroke-width="0.3" fill="#E69F00"/>
<polygon points="466.9,117.8 467.8,126.0 464.4,128.5 457.1,126.4 455.3,121.2 461.4,116.1 466.9,117.8" class="s-bg" stroke-width="0.3" fill="#E69F00"/>
<polygon points="458.9,108.5 463.2,105.0 470.0,107.0 470.6,114.9 466.9,117.8 461.4,116.1 458.9,108.5" class="s-bg" stroke-width="0.3" fill="#E69F00"/>
<polygon points="474.3,103.9 470.0,107.0 463.2,105.0 462.3,97.1 464.4,94.7 472.8,94.8 473.9,96.0 474.3,103.9" class="s-bg" stroke-width="0.3" fill="#E69F00"/>
<polygon points="398.7,115.4 406.1,124.6 402.6,138.5 389.3,140.9 389.3,137.7 389.1,133.4 388.8,129.1 388.2,124.9 387.4,120.6 386.4,116.3 386.2,115.5 398.7,115.4" class="s-bg" stroke-width="0.3" fill="#CC79A7"/>
<polygon points="422.1,137.4 408.6,142.6 402.6,138.5 406.1,124.6 418.8,122.2 420.9,123.8 422.1,137.4" class="s-bg" stroke-width="0.3" fill="#0072B2"/>
<polygon points="432.0,140.2 428.8,141.0 422.1,137.4 420.9,123.8 430.9,121.9 437.0,129.7 432.0,140.2" class="s-bg" stroke-width="0.3" fill="#E69F00"/>
<polygon points="449.3,134.0 442.9,145.3 432.0,140.2 437.0,129.7 443.5,128.6 449.3,134.0" class="s-bg" stroke-width="0.3" fill="#E69F00"/>
<polygon points="457.1,126.4 451.2,133.9 449.3,134.0 443.5,128.6 445.7,121.7 450.7,119.3 455.3,121.2 457.1,126.4" class="s-bg" stroke-width="0.3" fill="#E69F00"/>
<polygon points="464.2,138.6 459.0,140.0 451.2,133.9 457.1,126.4 464.4,128.5 464.2,138.6" class="s-bg" stroke-width="0.3" fill="#E69F00"/>
<polygon points="503.8,61.0 489.4,68.6 483.0,64.9 480.7,59.2 485.8,45.5 488.7,45.9 493.0,46.4 497.4,46.9 501.8,47.2 503.9,47.2 503.8,61.0" class="s-bg" stroke-width="0.3" fill="#CC79A7"/>
<polygon points="528.4,66.1 515.5,72.2 503.8,61.0 503.9,47.2 506.2,47.2 510.6,47.0 515.0,46.4 519.4,45.6 523.8,44.6 528.1,43.6 530.5,43.1 528.4,66.1" class="s-bg" stroke-width="0.3" fill="#0072B2"/>
<polygon points="528.4,66.1 530.5,43.1 532.5,42.7 536.9,42.0 541.3,41.6 545.7,41.4 550.1,41.5 553.0,41.6 558.5,67.7 547.3,78.7 528.4,66.1" class="s-bg" stroke-width="0.3" fill="#0072B2"/>
<polygon points="580.1,70.4 558.5,67.7 553.0,41.6 554.5,41.7 558.9,42.0 563.3,42.2 567.6,42.3 572.0,42.1 576.4,41.8 580.8,41.4 585.2,41.3 589.6,41.6 590.2,41.7 580.1,70.4" class="s-bg" stroke-width="0.3" fill="#0072B2"/>
<polygon points="486.3,93.9 486.2,94.2 473.9,96.0 472.8,94.8 474.4,82.7 482.7,83.8 486.3,93.9" class="s-bg" stroke-width="0.3" fill="#E69F00"/>
<polygon points="474.4,82.7 473.0,81.4 472.3,73.8 483.0,64.9 489.4,68.6 490.6,76.0 482.7,83.8 474.4,82.7" class="s-bg" stroke-width="0.3" fill="#E69F00"/>
<polygon points="490.6,76.0 499.1,82.8 496.9,91.3 486.3,93.9 482.7,83.8 490.6,76.0" class="s-bg" stroke-width="0.3" fill="#E69F00"/>
<polygon points="496.9,91.3 503.5,100.2 493.9,106.7 486.8,101.7 486.2,94.2 486.3,93.9 496.9,91.3" class="s-bg" stroke-width="0.3" fill="#E69F00"/>
<polygon points="490.6,76.0 489.4,68.6 503.8,61.0 515.5,72.2 513.6,78.5 499.1,82.8 490.6,76.0" class="s-bg" stroke-width="0.3" fill="#E69F00"/>
<polygon points="499.1,82.8 513.6,78.5 517.3,87.9 508.3,101.2 503.5,100.2 496.9,91.3 499.1,82.8" class="s-bg" stroke-width="0.3" fill="#E69F00"/>
<polygon points="513.6,78.5 515.5,72.2 528.4,66.1 547.3,78.7 546.6,88.2 534.4,95.1 517.3,87.9 513.6,78.5" class="s-bg" stroke-width="0.3" fill="#0072B2"/>
<polygon points="558.5,67.7 580.1,70.4 586.2,79.8 577.6,101.2 560.6,102.2 546.6,88.2 547.3,78.7 558.5,67.7" class="s-bg" stroke-width="0.3" fill="#0072B2"/>
<polygon points="474.6,127.8 467.8,126.0 466.9,117.8 470.6,114.9 479.1,117.2 479.9,122.1 474.6,127.8" class="s-bg" stroke-width="0.3" fill="#E69F00"/>
<polygon points="470.6,114.9 470.0,107.0 474.3,103.9 480.4,106.5 481.7,113.7 479.1,117.2 470.6,114.9" class="s-bg" stroke-width="0.3" fill="#E69F00"/>
<polygon points="486.2,94.2 486.8,101.7 480.4,106.5 474.3,103.9 473.9,96.0 486.2,94.2" class="s-bg" stroke-width="0.3" fill="#E69F00"/>
<polygon points="479.1,117.2 481.7,113.7 493.2,113.7 495.1,116.9 489.3,126.4 479.9,122.1 479.1,117.2" class="s-bg" stroke-width="0.3" fill="#E69F00"/>
<polygon points="481.7,113.7 480.4,106.5 486.8,101.7 493.9,106.7 493.2,113.7 481.7,113.7" class="s-bg" stroke-width="0.3" fill="#E69F00"/>
<polygon points="495.1,116.9 507.5,119.6 508.6,122.3 504.7,132.6 491.6,133.2 490.7,132.5 489.3,126.4 495.1,116.9" class="s-bg" stroke-width="0.3" fill="#E69F00"/>
<polygon points="495.1,116.9 493.2,113.7 493.9,106.7 503.5,100.2 508.3,101.2 511.9,107.9 507.5,119.6 495.1,116.9" class="s-bg" stroke-width="0.3" fill="#E69F00"/>
<polygon points="511.9,107.9 529.5,109.0 534.5,122.7 527.4,127.1 508.6,122.3 507.5,119.6 511.9,107.9" class="s-bg" stroke-width="0.3" fill="#0072B2"/>
<polygon points="517.3,87.9 534.4,95.1 529.5,109.0 511.9,107.9 508.3,101.2 517.3,87.9" class="s-bg" stroke-width="0.3" fill="#0072B2"/>
<polygon points="546.6,88.2 560.6,102.2 549.9,126.8 548.5,127.2 534.5,122.7 529.5,109.0 534.4,95.1 546.6,88.2" class="s-bg" stroke-width="0.3" fill="#0072B2"/>
<polygon points="585.6,111.6 578.1,137.1 575.2,138.8 549.9,126.8 560.6,102.2 577.6,101.2 585.6,111.6" class="s-bg" stroke-width="0.3" fill="#0072B2"/>
<polygon points="477.5,137.1 477.5,137.1 468.8,140.9 464.2,138.6 464.4,128.5 467.8,126.0 474.6,127.8 477.5,137.1" class="s-bg" stroke-width="0.3" fill="#E69F00"/>
<polygon points="477.5,137.1 484.3,151.2 480.4,155.5 469.4,152.3 468.8,140.9 477.5,137.1" class="s-bg" stroke-width="0.3" fill="#E69F00"/>
<polygon points="489.3,126.4 490.7,132.5 477.5,137.1 474.6,127.8 479.9,122.1 489.3,126.4" class="s-bg" stroke-width="0.3" fill="#E69F00"/>
<polygon points="490.7,132.5 491.6,133.2 492.3,149.1 484.3,151.2 477.5,137.1 477.5,137.1 490.7,132.5" class="s-bg" stroke-width="0.3" fill="#0072B2"/>
<polygon points="508.6,140.3 498.9,151.8 492.3,149.1 491.6,133.2 504.7,132.6 508.6,140.3" class="s-bg" stroke-width="0.3" fill="#0072B2"/>
<polygon points="524.8,151.7 520.7,158.9 501.9,158.3 498.9,151.8 508.6,140.3 520.6,143.2 524.8,151.7" class="s-bg" stroke-width="0.3" fill="#0072B2"/>
<polygon points="527.4,127.1 520.6,143.2 508.6,140.3 504.7,132.6 508.6,122.3 527.4,127.1" class="s-bg" stroke-width="0.3" fill="#0072B2"/>
<polygon points="534.5,122.7 548.5,127.2 541.9,151.3 524.8,151.7 520.6,143.2 527.4,127.1 534.5,122.7" class="s-bg" stroke-width="0.3" fill="#0072B2"/>
<polygon points="484.3,151.2 492.3,149.1 498.9,151.8 501.9,158.3 496.6,172.6 493.6,173.5 481.2,167.0 480.4,155.5 484.3,151.2" class="s-bg" stroke-width="0.3" fill="#0072B2"/>
<polygon points="616.1,72.3 608.8,80.5 586.2,79.8 580.1,70.4 590.2,41.7 594.0,42.4 598.4,43.5 602.7,44.8 607.1,45.8 611.3,46.5 616.1,72.3" class="s-bg" stroke-width="0.3" fill="#0072B2"/>
<polygon points="629.7,73.4 616.1,72.3 611.3,46.5 611.5,46.6 615.9,47.0 620.3,47.2 624.7,47.2 629.1,47.1 633.5,46.9 637.8,46.6 642.2,46.1 646.6,45.4 651.0,44.8 654.0,45.3 629.7,73.4" class="s-bg" stroke-width="0.3" fill="#0072B2"/>
<polygon points="654.0,45.3 656.3,45.6 654.9,47.5 653.8,49.5 653.1,51.4 652.6,53.3 652.4,55.2 652.5,57.1 653.0,59.1 653.8,61.0 654.7,62.9 655.6,64.8 656.3,66.7 656.8,68.7 656.8,70.6 655.9,72.5 654.2,74.4 652.6,76.3 652.4,78.2 654.2,80.2 654.7,80.4 643.1,87.4 629.7,73.4 654.0,45.3" class="s-bg" stroke-width="0.3" fill="#0072B2"/>
<polygon points="608.8,80.5 613.8,98.7 603.6,112.5 585.6,111.6 577.6,101.2 586.2,79.8 608.8,80.5" class="s-bg" stroke-width="0.3" fill="#0072B2"/>
<polygon points="613.8,98.7 608.8,80.5 616.1,72.3 629.7,73.4 643.1,87.4 642.2,93.5 630.6,103.2 613.8,98.7" class="s-bg" stroke-width="0.3" fill="#0072B2"/>
<polygon points="643.1,87.4 654.7,80.4 658.0,82.1 662.7,84.0 667.2,85.9 670.7,87.8 673.3,89.8 674.7,91.7 674.7,93.6 672.9,95.5 669.7,97.4 666.5,99.4 664.7,101.3 664.6,102.1 655.4,104.9 642.2,93.5 643.1,87.4" class="s-bg" stroke-width="0.3" fill="#0072B2"/>
<polygon points="633.0,116.0 618.1,130.4 613.1,129.7 603.6,112.5 613.8,98.7 630.6,103.2 633.0,116.0" class="s-bg" stroke-width="0.3" fill="#0072B2"/>
<polygon points="642.2,93.5 655.4,104.9 653.5,114.9 644.8,121.7 633.0,116.0 630.6,103.2 642.2,93.5" class="s-bg" stroke-width="0.3" fill="#0072B2"/>
<polygon points="667.5,123.8 667.0,124.3 666.2,126.2 666.1,128.1 666.3,130.1 666.7,132.0 667.5,133.5 667.0,133.8 646.4,132.1 644.8,121.7 653.5,114.9 667.5,123.8" class="s-bg" stroke-width="0.3" fill="#0072B2"/>
<polygon points="653.5,114.9 655.4,104.9 664.6,102.1 664.6,103.2 665.7,105.1 667.4,107.0 669.4,108.9 671.8,110.9 674.0,112.8 675.3,114.7 675.2,116.6 673.6,118.5 671.3,120.5 668.8,122.4 667.5,123.8 653.5,114.9" class="s-bg" stroke-width="0.3" fill="#0072B2"/>
<polygon points="578.1,137.1 600.5,142.6 606.4,165.1 586.1,169.0 572.6,149.6 575.2,138.8 578.1,137.1" class="s-bg" stroke-width="0.3" fill="#0072B2"/>
<polygon points="600.5,142.6 578.1,137.1 585.6,111.6 603.6,112.5 613.1,129.7 600.5,142.6" class="s-bg" stroke-width="0.3" fill="#0072B2"/>
<polygon points="618.0,164.7 609.2,166.8 606.4,165.1 600.5,142.6 613.1,129.7 618.1,130.4 628.4,141.2 628.9,151.8 618.0,164.7" class="s-bg" stroke-width="0.3" fill="#0072B2"/>
<polygon points="644.8,121.7 646.4,132.1 645.0,134.5 628.4,141.2 618.1,130.4 633.0,116.0 644.8,121.7" class="s-bg" stroke-width="0.3" fill="#0072B2"/>
<polygon points="628.4,141.2 645.0,134.5 652.8,154.1 648.3,157.8 628.9,151.8 628.4,141.2" class="s-bg" stroke-width="0.3" fill="#0072B2"/>
<polygon points="667.0,133.8 658.3,153.4 652.8,154.1 645.0,134.5 646.4,132.1 667.0,133.8" class="s-bg" stroke-width="0.3" fill="#0072B2"/>
<polygon points="670.7,160.4 658.3,153.4 667.0,133.8 667.5,133.5 667.7,133.9 669.2,135.8 671.1,137.7 673.1,139.6 675.3,141.6 677.9,143.5 681.2,145.4 684.9,147.3 688.2,149.2 688.7,149.6 670.7,160.4" class="s-bg" stroke-width="0.3" fill="#0072B2"/>
<polygon points="644.6,182.6 618.0,164.7 628.9,151.8 648.3,157.8 645.3,181.8 644.6,182.6" class="s-bg" stroke-width="0.3" fill="#0072B2"/>
<polygon points="648.3,157.8 652.8,154.1 658.3,153.4 670.7,160.4 670.3,175.9 645.3,181.8 648.3,157.8" class="s-bg" stroke-width="0.3" fill="#0072B2"/>
<polygon points="688.7,149.6 690.6,151.2 692.1,153.1 692.7,155.0 692.0,156.9 689.8,158.8 686.6,160.7 683.6,162.7 681.7,164.6 680.9,166.5 681.0,168.4 682.4,170.3 685.7,172.3 690.4,174.2 695.1,176.1 698.0,178.0 698.1,179.9 695.4,181.9 691.3,183.8 687.7,185.7 687.5,186.1 682.7,186.2 670.3,175.9 670.7,160.4 688.7,149.6" class="s-bg" stroke-width="0.3" fill="#0072B2"/>
<polygon points="643.6,188.2 632.0,198.3 609.4,192.5 609.2,166.8 618.0,164.7 644.6,182.6 643.6,188.2" class="s-bg" stroke-width="0.3" fill="#0072B2"/>
<polygon points="632.0,198.3 643.6,188.2 665.3,207.2 666.7,221.1 664.4,221.5 662.2,221.7 659.9,221.3 657.7,220.4 655.4,219.5 653.2,219.0 650.9,219.2 648.6,219.9 646.4,220.9 644.1,221.6 641.9,222.0 639.6,222.1 637.3,222.2 635.1,222.6 632.8,223.5 632.5,223.7 632.0,198.3" class="s-bg" stroke-width="0.3" fill="#0072B2"/>
<polygon points="670.3,175.9 682.7,186.2 665.3,207.2 643.6,188.2 644.6,182.6 645.3,181.8 670.3,175.9" class="s-bg" stroke-width="0.3" fill="#0072B2"/>
<polygon points="665.3,207.2 682.7,186.2 687.5,186.1 686.4,187.6 687.9,189.5 690.8,191.4 693.7,193.4 695.4,195.3 695.9,197.2 695.3,199.1 694.3,201.0 693.9,203.0 695.0,204.9 697.5,206.8 699.7,208.7 700.0,210.6 698.4,212.6 696.1,214.5 698.3,218.0 696.1,218.3 693.8,218.4 691.6,218.2 689.3,217.6 687.0,216.8 684.8,215.6 682.5,214.5 680.3,214.0 678.0,214.4 675.7,215.9 673.5,217.8 671.2,219.4 669.0,220.4 666.7,221.1 666.7,221.1 665.3,207.2" class="s-bg" stroke-width="0.3" fill="#0072B2"/>
<polygon points="602.2,206.8 604.1,196.9 609.4,192.5 632.0,198.3 632.5,223.7 630.6,224.8 628.3,225.8 626.0,225.9 623.8,225.0 621.5,223.9 619.3,223.3 617.0,223.8 614.8,225.2 613.3,226.3 602.2,206.8" class="s-bg" stroke-width="0.3" fill="#0072B2"/>
<polygon points="412.7,161.3 409.8,164.9 387.3,163.7 387.4,163.3 388.0,159.1 388.6,154.8 389.0,150.5 389.2,146.2 389.3,142.0 389.3,140.9 402.6,138.5 408.6,142.6 412.7,161.3" class="s-bg" stroke-width="0.3" fill="#0072B2"/>
<polygon points="412.7,161.3 408.6,142.6 422.1,137.4 428.8,141.0 425.4,158.7 412.7,161.3" class="s-bg" stroke-width="0.3" fill="#0072B2"/>
<polygon points="442.9,145.3 444.3,148.0 436.3,163.8 425.4,158.7 428.8,141.0 432.0,140.2 442.9,145.3" class="s-bg" stroke-width="0.3" fill="#E69F00"/>
<polygon points="454.5,150.4 444.3,148.0 442.9,145.3 449.3,134.0 451.2,133.9 459.0,140.0 454.5,150.4" class="s-bg" stroke-width="0.3" fill="#E69F00"/>
<polygon points="468.8,140.9 469.4,152.3 459.8,157.7 454.5,150.4 459.0,140.0 464.2,138.6 468.8,140.9" class="s-bg" stroke-width="0.3" fill="#E69F00"/>
<polygon points="409.8,164.9 414.8,186.5 387.2,195.4 387.1,193.2 386.9,189.0 386.5,184.7 386.3,180.4 386.2,176.1 386.3,171.9 386.7,167.6 387.3,163.7 409.8,164.9" class="s-bg" stroke-width="0.3" fill="#0072B2"/>
<polygon points="422.4,190.6 414.8,186.5 409.8,164.9 412.7,161.3 425.4,158.7 436.3,163.8 440.7,171.0 440.6,174.1 422.4,190.6" class="s-bg" stroke-width="0.3" fill="#0072B2"/>
<polygon points="436.3,163.8 444.3,148.0 454.5,150.4 459.8,157.7 459.1,161.7 440.7,171.0 436.3,163.8" class="s-bg" stroke-width="0.3" fill="#E69F00"/>
<polygon points="440.7,171.0 459.1,161.7 469.1,173.4 466.1,186.2 458.4,189.8 440.6,174.1 440.7,171.0" class="s-bg" stroke-width="0.3" fill="#0072B2"/>
<polygon points="459.8,157.7 469.4,152.3 480.4,155.5 481.2,167.0 469.1,173.4 459.1,161.7 459.8,157.7" class="s-bg" stroke-width="0.3" fill="#E69F00"/>
<polygon points="469.1,173.4 481.2,167.0 493.6,173.5 484.0,194.5 466.1,186.2 469.1,173.4" class="s-bg" stroke-width="0.3" fill="#0072B2"/>
<polygon points="414.8,186.5 422.4,190.6 426.4,200.8 420.6,217.7 409.0,221.3 386.6,212.3 386.8,210.3 387.0,206.0 387.2,201.8 387.2,197.5 387.2,195.4 414.8,186.5" class="s-bg" stroke-width="0.3" fill="#0072B2"/>
<polygon points="458.4,189.8 452.8,203.1 426.4,200.8 422.4,190.6 440.6,174.1 458.4,189.8" class="s-bg" stroke-width="0.3" fill="#0072B2"/>
<polygon points="466.1,186.2 484.0,194.5 484.3,195.1 478.9,214.4 458.2,216.2 452.8,203.1 458.4,189.8 466.1,186.2" class="s-bg" stroke-width="0.3" fill="#0072B2"/>
<polygon points="409.0,221.3 404.1,251.9 402.4,251.8 400.2,252.2 397.9,252.6 395.6,253.2 393.4,253.9 391.1,254.5 388.9,254.6 386.6,254.2 385.7,248.8 385.3,244.5 385.0,240.2 384.9,235.9 385.0,231.7 385.2,227.4 385.6,223.1 386.0,218.9 386.4,214.6 386.6,212.3 409.0,221.3" class="s-bg" stroke-width="0.3" fill="#0072B2"/>
<polygon points="452.8,203.1 458.2,216.2 455.9,221.6 432.7,229.1 420.6,217.7 426.4,200.8 452.8,203.1" class="s-bg" stroke-width="0.3" fill="#0072B2"/>
<polygon points="478.9,214.4 483.6,219.3 482.4,242.5 481.5,242.5 479.2,241.9 477.0,240.9 474.7,240.0 472.4,239.9 470.2,240.5 467.9,241.5 465.7,242.5 463.5,243.5 455.9,221.6 458.2,216.2 478.9,214.4" class="s-bg" stroke-width="0.3" fill="#0072B2"/>
<polygon points="409.0,221.3 420.6,217.7 432.7,229.1 432.7,247.8 431.8,248.1 429.5,248.9 427.3,249.7 425.0,250.1 422.8,250.2 420.5,250.3 418.2,250.7 416.0,251.5 413.7,252.5 411.5,253.1 409.2,253.0 406.9,252.4 404.7,251.9 404.1,251.9 409.0,221.3" class="s-bg" stroke-width="0.3" fill="#0072B2"/>
<polygon points="463.5,243.5 463.4,243.5 461.2,244.5 458.9,245.5 456.6,246.5 454.4,247.5 452.1,248.5 449.9,249.4 447.6,249.6 445.3,249.0 443.1,248.0 440.8,247.3 438.6,247.1 436.3,247.2 434.0,247.5 432.7,247.8 432.7,229.1 455.9,221.6 463.5,243.5" class="s-bg" stroke-width="0.3" fill="#0072B2"/>
<polygon points="549.9,126.8 575.2,138.8 572.6,149.6 559.2,159.3 546.0,156.6 541.9,151.3 548.5,127.2 549.9,126.8" class="s-bg" stroke-width="0.3" fill="#0072B2"/>
<polygon points="507.7,178.9 496.6,172.6 501.9,158.3 520.7,158.9 521.6,165.6 507.7,178.9" class="s-bg" stroke-width="0.3" fill="#0072B2"/>
<polygon points="508.4,180.6 507.7,178.9 521.6,165.6 531.1,174.7 522.7,185.3 508.4,180.6" class="s-bg" stroke-width="0.3" fill="#009E73"/>
<polygon points="546.0,156.6 540.2,171.7 532.2,174.8 531.1,174.7 521.6,165.6 520.7,158.9 524.8,151.7 541.9,151.3 546.0,156.6" class="s-bg" stroke-width="0.3" fill="#0072B2"/>
<polygon points="537.8,189.4 532.2,174.8 540.2,171.7 548.3,178.5 543.4,189.7 537.8,189.4" class="s-bg" stroke-width="0.3" fill="#009E73"/>
<polygon points="556.3,178.6 548.3,178.5 540.2,171.7 546.0,156.6 559.2,159.3 561.6,172.6 556.3,178.6" class="s-bg" stroke-width="0.3" fill="#0072B2"/>
<polygon points="561.6,172.6 559.2,159.3 572.6,149.6 586.1,169.0 579.8,178.8 561.6,172.6" class="s-bg" stroke-width="0.3" fill="#0072B2"/>
<polygon points="579.8,178.8 586.1,169.0 606.4,165.1 609.2,166.8 609.4,192.5 604.1,196.9 584.7,190.5 580.0,182.2 579.8,178.8" class="s-bg" stroke-width="0.3" fill="#0072B2"/>
<polygon points="503.4,210.9 499.9,218.7 483.6,219.3 478.9,214.4 484.3,195.1 499.8,198.7 503.4,210.9" class="s-bg" stroke-width="0.3" fill="#0072B2"/>
<polygon points="499.8,198.7 484.3,195.1 484.0,194.5 493.6,173.5 496.6,172.6 507.7,178.9 508.4,180.6 506.1,193.9 499.8,198.7" class="s-bg" stroke-width="0.3" fill="#0072B2"/>
<polygon points="515.7,209.6 503.4,210.9 499.8,198.7 506.1,193.9 516.0,197.8 518.2,203.8 515.7,209.6" class="s-bg" stroke-width="0.3" fill="#009E73"/>
<polygon points="506.1,193.9 508.4,180.6 522.7,185.3 524.0,190.3 516.0,197.8 506.1,193.9" class="s-bg" stroke-width="0.3" fill="#009E73"/>
<polygon points="518.2,203.8 516.0,197.8 524.0,190.3 527.9,192.6 527.8,203.8 518.2,203.8" class="s-bg" stroke-width="0.3" fill="#009E73"/>
<polygon points="524.0,190.3 522.7,185.3 531.1,174.7 532.2,174.8 537.8,189.4 534.5,192.2 527.9,192.6 524.0,190.3" class="s-bg" stroke-width="0.3" fill="#009E73"/>
<polygon points="528.4,204.3 527.8,203.8 527.9,192.6 534.5,192.2 536.7,201.0 528.4,204.3" class="s-bg" stroke-width="0.3" fill="#009E73"/>
<polygon points="529.7,208.7 528.4,204.3 536.7,201.0 542.0,203.7 543.3,205.7 542.5,205.1 540.2,204.7 538.0,206.3 535.7,209.6 534.5,211.8 529.7,208.7" class="s-bg" stroke-width="0.3" fill="#009E73"/>
<polygon points="536.7,201.0 534.5,192.2 537.8,189.4 543.4,189.7 544.6,191.1 542.0,203.7 536.7,201.0" class="s-bg" stroke-width="0.3" fill="#009E73"/>
<polygon points="543.5,205.9 543.3,205.7 542.0,203.7 544.6,191.1 551.5,193.4 552.8,198.8 543.5,205.9" class="s-bg" stroke-width="0.3" fill="#009E73"/>
<polygon points="544.6,191.1 543.4,189.7 548.3,178.5 556.3,178.6 558.7,187.6 551.5,193.4 544.6,191.1" class="s-bg" stroke-width="0.3" fill="#009E73"/>
<polygon points="552.8,198.8 559.6,203.3 559.2,205.8 548.5,211.1 547.0,209.4 544.7,206.8 543.5,205.9 552.8,198.8" class="s-bg" stroke-width="0.3" fill="#009E73"/>
<polygon points="551.5,193.4 558.7,187.6 564.8,191.1 565.3,199.0 559.6,203.3 552.8,198.8 551.5,193.4" class="s-bg" stroke-width="0.3" fill="#009E73"/>
<polygon points="558.7,187.6 556.3,178.6 561.6,172.6 579.8,178.8 580.0,182.2 564.8,191.1 558.7,187.6" class="s-bg" stroke-width="0.3" fill="#009E73"/>
<polygon points="565.3,199.0 576.9,204.4 577.7,208.8 562.9,213.5 559.2,205.8 559.6,203.3 565.3,199.0" class="s-bg" stroke-width="0.3" fill="#009E73"/>
<polygon points="580.0,182.2 584.7,190.5 576.9,204.4 565.3,199.0 564.8,191.1 580.0,182.2" class="s-bg" stroke-width="0.3" fill="#009E73"/>
<polygon points="584.7,190.5 604.1,196.9 602.2,206.8 585.5,215.4 581.2,213.7 577.7,208.8 576.9,204.4 584.7,190.5" class="s-bg" stroke-width="0.3" fill="#0072B2"/>
<polygon points="483.6,219.3 499.9,218.7 502.6,222.5 503.4,234.7 501.8,235.8 499.6,237.9 497.3,240.1 495.0,241.7 492.8,242.4 490.5,242.3 488.3,242.1 486.0,242.2 483.7,242.5 482.4,242.5 483.6,219.3" class="s-bg" stroke-width="0.3" fill="#0072B2"/>
<polygon points="519.8,215.8 516.1,222.5 502.6,222.5 499.9,218.7 503.4,210.9 515.7,209.6 519.8,215.8" class="s-bg" stroke-width="0.3" fill="#009E73"/>
<polygon points="502.6,222.5 516.1,222.5 520.8,232.0 519.9,232.7 517.6,233.4 515.4,233.6 513.1,233.3 510.8,233.1 508.6,233.1 506.3,233.5 504.1,234.3 503.4,234.7 502.6,222.5" class="s-bg" stroke-width="0.3" fill="#009E73"/>
<polygon points="516.1,222.5 519.8,215.8 522.5,215.9 529.5,221.1 528.9,222.1 526.7,225.7 524.4,228.8 522.1,231.1 520.8,232.0 516.1,222.5" class="s-bg" stroke-width="0.3" fill="#009E73"/>
<polygon points="529.7,208.7 522.5,215.9 519.8,215.8 515.7,209.6 518.2,203.8 527.8,203.8 528.4,204.3 529.7,208.7" class="s-bg" stroke-width="0.3" fill="#009E73"/>
<polygon points="522.5,215.9 529.7,208.7 534.5,211.8 533.4,213.7 531.2,218.0 529.5,221.1 522.5,215.9" class="s-bg" stroke-width="0.3" fill="#009E73"/>
<polygon points="559.2,205.8 562.9,213.5 561.2,218.7 560.5,218.3 558.3,217.9 556.0,217.5 553.8,216.4 551.5,214.5 549.2,212.0 548.5,211.1 559.2,205.8" class="s-bg" stroke-width="0.3" fill="#009E73"/>
<polygon points="562.9,213.5 577.7,208.8 581.2,213.7 568.3,227.2 567.3,225.8 565.1,222.3 562.8,219.7 561.2,218.7 562.9,213.5" class="s-bg" stroke-width="0.3" fill="#009E73"/>
<polygon points="581.2,213.7 585.5,215.4 589.9,231.4 587.6,233.4 585.4,235.0 583.1,235.4 580.9,234.5 578.6,233.3 576.4,232.6 574.1,232.2 571.8,231.3 569.6,229.1 568.3,227.2 581.2,213.7" class="s-bg" stroke-width="0.3" fill="#0072B2"/>
<polygon points="585.5,215.4 602.2,206.8 613.3,226.3 612.5,226.9 610.2,228.2 608.0,229.0 605.7,229.3 603.5,229.4 601.2,229.4 598.9,229.3 596.7,229.2 594.4,229.3 592.2,229.9 589.9,231.3 589.9,231.4 585.5,215.4" class="s-bg" stroke-width="0.3" fill="#0072B2"/>
<text x="540.0" y="24.0" class="f-fg" font-size="12" text-anchor="middle" font-weight="600">SKATER 지역 4개 (비 0.510)</text>
<path d="M449.9,249.4 L447.6,249.6 L445.3,249.0 L443.1,248.0 L440.8,247.3 L438.6,247.1 L436.3,247.2 L434.0,247.5 L432.7,247.8 L431.8,248.1 L429.5,248.9 L427.3,249.7 L425.0,250.1 L422.8,250.2 L420.5,250.3 L418.2,250.7 L416.0,251.5 L413.7,252.5 L411.5,253.1 L409.2,253.0 L406.9,252.4 L404.7,251.9 L404.1,251.9 L402.4,251.8 L400.2,252.2 L397.9,252.6 L395.6,253.2 L393.4,253.9 L391.1,254.5 L388.9,254.6 L386.6,254.2 L385.7,248.8 L385.3,244.5 L385.0,240.2 L384.9,235.9 L385.0,231.7 L385.2,227.4 L385.6,223.1 L386.0,218.9 L386.4,214.6 L386.6,212.3 L386.8,210.3 L387.0,206.0 L387.2,201.8 L387.2,197.5 L387.2,195.4 L387.1,193.2 L386.9,189.0 L386.5,184.7 L386.3,180.4 L386.2,176.1 L386.3,171.9 L386.7,167.6 L387.3,163.7 L387.4,163.3 L388.0,159.1 L388.6,154.8 L389.0,150.5 L389.2,146.2 L389.3,142.0 L389.3,140.9 L389.3,137.7 L389.1,133.4 L388.8,129.1 L388.2,124.9 L387.4,120.6 L386.4,116.3 L386.2,115.5 L385.3,112.1 L384.3,107.8 L383.5,103.5 L383.0,99.2 L382.9,96.2 L382.8,95.0 L383.0,90.7 L383.3,86.4 L383.6,82.2 L383.8,77.9 L383.7,73.6 L383.5,69.3 L383.2,67.4 L383.0,65.1 L382.4,60.8 L381.8,56.5 L381.2,52.3 L380.6,48.0 L380.0,43.7 L392.1,36.0 L396.5,37.0 L400.9,38.0 L403.3,38.5 L405.3,39.0 L409.7,39.7 L414.1,40.3 L418.4,40.7 L422.8,40.9 L425.0,41.0 L427.2,41.1 L431.6,41.1 L436.0,41.0 L440.4,40.9 L444.8,40.8 L448.9,40.8 L449.2,40.8 L453.6,40.9 L457.9,41.1 L462.3,41.6 L464.5,41.9 L466.7,42.2 L471.1,43.0 L475.5,43.8 L479.9,44.6 L484.3,45.3 L485.8,45.5 L488.7,45.9 L493.0,46.4 L497.4,46.9 L501.8,47.2 L503.9,47.2 L506.2,47.2 L510.6,47.0 L515.0,46.4 L519.4,45.6 L523.8,44.6 L528.1,43.6 L530.5,43.1 L532.5,42.7 L536.9,42.0 L541.3,41.6 L545.7,41.4 L550.1,41.5 L553.0,41.6 L554.5,41.7 L558.9,42.0 L563.3,42.2 L567.6,42.3 L572.0,42.1 L576.4,41.8 L580.8,41.4 L585.2,41.3 L589.6,41.6 L590.2,41.7 L594.0,42.4 L598.4,43.5 L602.7,44.8 L607.1,45.8 L611.3,46.5 L611.5,46.6 L615.9,47.0 L620.3,47.2 L624.7,47.2 L629.1,47.1 L633.5,46.9 L637.8,46.6 L642.2,46.1 L646.6,45.4 L651.0,44.8 L654.0,45.3 L656.3,45.6 L654.9,47.5 L653.8,49.5 L653.1,51.4 L652.6,53.3 L652.4,55.2 L652.5,57.1 L653.0,59.1 L653.8,61.0 L654.7,62.9 L655.6,64.8 L656.3,66.7 L656.8,68.7 L656.8,70.6 L655.9,72.5 L654.2,74.4 L652.6,76.3 L652.4,78.2 L654.2,80.2 L654.7,80.4 L658.0,82.1 L662.7,84.0 L667.2,85.9 L670.7,87.8 L673.3,89.8 L674.7,91.7 L674.7,93.6 L672.9,95.5 L669.7,97.4 L666.5,99.4 L664.7,101.3 L664.6,102.1 L664.6,103.2 L665.7,105.1 L667.4,107.0 L669.4,108.9 L671.8,110.9 L674.0,112.8 L675.3,114.7 L675.2,116.6 L673.6,118.5 L671.3,120.5 L668.8,122.4 L667.5,123.8 L667.0,124.3 L666.2,126.2 L666.1,128.1 L666.3,130.1 L666.7,132.0 L667.5,133.5 L667.7,133.9 L669.2,135.8 L671.1,137.7 L673.1,139.6 L675.3,141.6 L677.9,143.5 L681.2,145.4 L684.9,147.3 L688.2,149.2 L688.7,149.6 L690.6,151.2 L692.1,153.1 L692.7,155.0 L692.0,156.9 L689.8,158.8 L686.6,160.7 L683.6,162.7 L681.7,164.6 L680.9,166.5 L681.0,168.4 L682.4,170.3 L685.7,172.3 L690.4,174.2 L695.1,176.1 L698.0,178.0 L698.1,179.9 L695.4,181.9 L691.3,183.8 L687.7,185.7 L687.5,186.1 L686.4,187.6 L687.9,189.5 L690.8,191.4 L693.7,193.4 L695.4,195.3 L695.9,197.2 L695.3,199.1 L694.3,201.0 L693.9,203.0 L695.0,204.9 L697.5,206.8 L699.7,208.7 L700.0,210.6 L698.4,212.6 L696.1,214.5 L698.3,218.0 L696.1,218.3 L693.8,218.4 L691.6,218.2 L689.3,217.6 L687.0,216.8 L684.8,215.6 L682.5,214.5 L680.3,214.0 L678.0,214.4 L675.7,215.9 L673.5,217.8 L671.2,219.4 L669.0,220.4 L666.7,221.1 L666.7,221.1 L664.4,221.5 L662.2,221.7 L659.9,221.3 L657.7,220.4 L655.4,219.5 L653.2,219.0 L650.9,219.2 L648.6,219.9 L646.4,220.9 L644.1,221.6 L641.9,222.0 L639.6,222.1 L637.3,222.2 L635.1,222.6 L632.8,223.5 L632.5,223.7 L630.6,224.8 L628.3,225.8 L626.0,225.9 L623.8,225.0 L621.5,223.9 L619.3,223.3 L617.0,223.8 L614.8,225.2 L613.3,226.3 L612.5,226.9 L610.2,228.2 L608.0,229.0 L605.7,229.3 L603.5,229.4 L601.2,229.4 L598.9,229.3 L596.7,229.2 L594.4,229.3 L592.2,229.9 L589.9,231.3 L589.9,231.4 L587.6,233.4 L585.4,235.0 L583.1,235.4 L580.9,234.5 L578.6,233.3 L576.4,232.6 L574.1,232.2 L571.8,231.3 L569.6,229.1 L568.3,227.2 L567.3,225.8 L565.1,222.3 L562.8,219.7 L561.2,218.7 L560.5,218.3 L558.3,217.9 L556.0,217.5 L553.8,216.4 L551.5,214.5 L549.2,212.0 L548.5,211.1 L547.0,209.4 L544.7,206.8 L543.5,205.9 L543.3,205.7 L542.5,205.1 L540.2,204.7 L538.0,206.3 L535.7,209.6 L534.5,211.8 L533.4,213.7 L531.2,218.0 L529.5,221.1 L528.9,222.1 L526.7,225.7 L524.4,228.8 L522.1,231.1 L520.8,232.0 L519.9,232.7 L517.6,233.4 L515.4,233.6 L513.1,233.3 L510.8,233.1 L508.6,233.1 L506.3,233.5 L504.1,234.3 L503.4,234.7 L501.8,235.8 L499.6,237.9 L497.3,240.1 L495.0,241.7 L492.8,242.4 L490.5,242.3 L488.3,242.1 L486.0,242.2 L483.7,242.5 L482.4,242.5 L481.5,242.5 L479.2,241.9 L477.0,240.9 L474.7,240.0 L472.4,239.9 L470.2,240.5 L467.9,241.5 L465.7,242.5 L463.5,243.5 L463.4,243.5 L461.2,244.5 L458.9,245.5 L456.6,246.5 L454.4,247.5 L452.1,248.5 L449.9,249.4 Z" class="s-fg" stroke-width="0.8" fill="none"/>
</svg>
